<svg xmlns="http://www.w3.org/2000/svg" viewBox="0 0 948.89 652.7"><defs><style>.cls-1{fill:#fff;}.cls-2{fill:#3055a6;}.cls-3{fill:#2c3487;}.cls-4{fill:#f7941d;}.cls-5{fill:#febf3e;}</style></defs><title>logoejbi</title><g id="Layer_2" data-name="Layer 2"><g id="Layer_1-2" data-name="Layer 1"><rect class="cls-1" width="948.89" height="652.7"/><path class="cls-2" d="M236.79,229c-3.8-6.11-9.92-7-15.8-7.08-6.12,0-15.81,2.24-15.81,10.59,0,6.63,7.16,8.19,16,9.84,10.06,1.93,20.49,3.72,20.49,15C241.56,269.13,229.71,272,221,272c-8.13,0-17.37-3.36-21.4-11.33l3.58-1.79c3.21,6.33,11.41,9.46,17.82,9.46s16.62-1.78,16.62-11c.07-7.82-8.57-9.54-17.15-11.18-9.54-1.86-19.3-3.8-19.3-13.42-.23-11,11.25-14.46,19.83-14.46,7.45,0,13.94,1.2,19.08,8.87Z"/><path class="cls-2" d="M299.4,271.15V219h4v52.18Z"/><path class="cls-2" d="M399.35,229c-3.8-6.11-9.91-7-15.8-7.08-6.11,0-15.8,2.24-15.8,10.59,0,6.63,7.15,8.19,15.95,9.84,10.06,1.93,20.5,3.72,20.5,15-.08,11.77-11.93,14.61-20.65,14.61-8.12,0-17.37-3.36-21.39-11.33l3.57-1.79c3.21,6.33,11.41,9.46,17.82,9.46s16.62-1.78,16.62-11c.08-7.82-8.57-9.54-17.14-11.18-9.54-1.86-19.31-3.8-19.31-13.42-.22-11,11.26-14.46,19.83-14.46,7.45,0,13.94,1.2,19.08,8.87Z"/><path class="cls-2" d="M476.72,222.62H457.86V219H499.6v3.58H480.75v48.53h-4Z"/><path class="cls-2" d="M560.35,243.05h30.56v3.65H560.35v20.57H593.3v3.88H556.4V219h36v3.8h-32Z"/><path class="cls-2" d="M696.9,224.78l-20,30.56h-1.34l-20.13-30.56v46.37h-4V219h4.77l20,30.41L695.93,219h4.92v52.18h-4Z"/><path class="cls-3" d="M245.58,316.19c0,13.49-8.57,23.33-23,23.33-13.35,0-22.89-8-22.89-22.74h9.69c0,9,4.33,13.49,13.2,13.49s13.11-6.18,13.11-14.08V295.46H220V286.3h25.56Z"/><path class="cls-3" d="M300.59,286.37v29.89c0,15.43-9.46,23.33-22.58,23.33-12.53,0-23.18-7.6-23.18-23.33V286.37h9.76v29.89c0,9.39,5.37,14.39,13.49,14.39s12.75-5.44,12.75-14.39V286.37Z"/><path class="cls-3" d="M356.5,338.47H344.79L329.59,321h-9.47v17.44h-9.84V286.22c8.28,0,16.55.08,24.82.08,12.3.07,18.79,8.27,18.79,17.29,0,7.16-3.28,14.39-13.2,16.4L356.5,337.8Zm-36.38-43v16.7h15c6.26,0,8.95-4.17,8.95-8.35s-2.76-8.35-8.95-8.35Z"/><path class="cls-3" d="M407.85,286.37v29.89c0,15.43-9.47,23.33-22.59,23.33-12.52,0-23.18-7.6-23.18-23.33V286.37h9.77v29.89c0,9.39,5.36,14.39,13.49,14.39s12.75-5.44,12.75-14.39V286.37Z"/><path class="cls-3" d="M459.88,301.43c0,4-1.94,7.9-6.79,10.06,6.12,1.86,8.35,8.35,8.35,11.63,0,11.63-8.72,15.35-19.53,15.35H417.17V286.3h24.74C452.2,286.3,459.88,290.92,459.88,301.43Zm-33,5.81h15.06c6.19,0,8.2-2.61,8.2-5.59,0-2.38-1.94-6.41-8.2-6.41H426.85Zm0,22.07h15.06c4,0,9.77-1.35,9.77-6.27,0-4.69-5.74-7.15-9.77-7.15H426.85Z"/><path class="cls-3" d="M505.42,328.64H478.14l-4.48,9.83H463l23.4-52.17h10.73l23.41,52.17H509.82Zm-13.64-31.39-9.69,22.22h19.38Z"/><path class="cls-3" d="M559.76,338.55v-21.1H534.11v21.1h-9.84V286.37h9.84v22h25.65v-22h9.76v52.18Z"/><path class="cls-3" d="M615.81,328.64H588.53l-4.48,9.83H573.39L596.8,286.3h10.73l23.41,52.17H620.21Zm-13.64-31.39-9.69,22.22h19.38Z"/><path class="cls-3" d="M666.79,298.89c-1.79-3-6.71-5.81-12.37-5.81-7.31,0-10.81,3.06-10.81,6.93,0,4.55,5.36,5.82,11.63,6.56,10.88,1.34,21,4.18,21,16.62,0,11.63-10.29,16.63-21.92,16.63-10.66,0-18.86-3.28-22.73-12.82l8.2-4.25c2.31,5.74,8.35,8.27,14.68,8.27s12-2.16,12-7.83c0-4.92-5.14-6.93-12.07-7.67-10.66-1.27-20.5-4.1-20.5-15.81,0-10.73,10.58-15.13,20.2-15.2,8.12,0,16.55,2.31,20.5,10.36Z"/><path class="cls-3" d="M720.9,328.64H693.62l-4.47,9.83H678.49L701.9,286.3h10.73L736,338.47H725.3Zm-13.64-31.39-9.69,22.22H717Z"/><path class="cls-3" d="M204.46,439.59v-88h16.46v88Z"/><path class="cls-3" d="M293.31,372.86c-3-5-11.31-9.8-20.86-9.8-12.32,0-18.23,5.15-18.23,11.69,0,7.66,9,9.8,19.61,11.06,18.35,2.26,35.44,7,35.44,28,0,19.61-17.34,28-36.95,28-18,0-31.79-5.53-38.33-21.62l13.82-7.16c3.9,9.67,14.08,13.95,24.76,13.95,10.43,0,20.24-3.65,20.24-13.2,0-8.29-8.68-11.69-20.36-12.94-18-2.14-34.56-6.92-34.56-26.65,0-18.09,17.84-25.51,34.05-25.63,13.7,0,27.9,3.89,34.56,17.47Z"/><path class="cls-3" d="M355.26,387.94l23.38-36.32h20v.76l-35.06,50.89v36.32H347V403.27l-33.81-50.89v-.76h19.73Z"/><path class="cls-3" d="M468.37,423h-46l-7.54,16.59h-18l39.46-88h18.1l39.46,88h-18.1Zm-23-52.9L429,407.55h32.68Z"/><path class="cls-3" d="M579.33,439.59H559.6L534,410.19H518v29.4H501.41V351.5c13.95,0,27.9.12,41.85.12,20.74.13,31.67,13.95,31.67,29.16,0,12.06-5.53,24.25-22.24,27.65l26.64,30ZM518,367.08v28.15h25.26c10.56,0,15.08-7,15.08-14.07s-4.65-14.08-15.08-14.08Z"/><path class="cls-3" d="M648.57,423h-46L595,439.59h-18l39.47-88h18.09l39.46,88H656Zm-23-52.9-16.33,37.45h32.67Z"/><path class="cls-3" d="M689.92,366.7H662V351.62H734.4V366.7H706.51v72.89H689.92Z"/><path class="cls-4" d="M1.23,215.92s28.64-37.79,47.1-55.64c0,0,22.89-14.12,38.35,40.72,0,0-.6,11.06,30.52,40.7,0,0,11.32,15.53,11,24.09,0,0,8.94,26.65,25.91-1.45,0,0,23.08-26.22-6.09-60.22S114.6,154.3,130,131.6c0,0,13.61-22.64,94.76-21.95,0,0,211.29,25.12,246.32-21.88,0,0,8-29.5-29-13,0,0-174.58,10.52-265-34.42,0,0-53.12-15.37-42.79-40.34,0,0-53.67,4.9-121,139.34C13.3,139.34-4.8,193.06,1.23,215.92Z"/><path class="cls-5" d="M268.75,123.29l77.55-.05,34.8,15.61s3,28.34-40.09,19.47Z"/><path class="cls-5" d="M253.46,123.4l61.78,32.07s14.43,37.83-17.72,26L185.15,123.24Z"/><path class="cls-5" d="M175.05,129.16l82.33,38.67s14.43,37.84-17.72,26L135.74,140Z"/><path class="cls-4" d="M947.66,436.78s-28.64,37.79-47.1,55.63c0,0-22.89,14.13-38.35-40.72,0,0,.6-11.05-30.52-40.69,0,0-11.32-15.54-11-24.09,0,0-8.94-26.66-25.91,1.45,0,0-23.08,26.22,6.09,60.21s33.39,49.83,18,72.53c0,0-13.61,22.64-94.76,21.95,0,0-211.29-25.12-246.32,21.88,0,0-8,29.5,29,13,0,0,174.58-10.52,265,34.42,0,0,53.12,15.36,42.79,40.34,0,0,53.67-4.91,121-139.34C935.59,513.36,953.69,459.64,947.66,436.78Z"/><path class="cls-5" d="M680.14,529.41l-77.55.05-34.8-15.62s-3-28.33,40.09-19.47Z"/><path class="cls-5" d="M695.43,529.3l-61.78-32.07s-14.43-37.84,17.72-26l112.36,58.25Z"/><path class="cls-5" d="M773.84,523.54l-82.33-38.68s-14.44-37.83,17.72-26l103.92,53.87Z"/><path class="cls-3" d="M467.56,91.71s427.23,58.37,345.59,296.86c0,0,131-246.12-342.06-300.8Z"/><path class="cls-3" d="M135.74,270.07S19,574.25,496,563.15c0,0-473.2,66.94-367.84-297.36Z"/><path class="cls-3" d="M385.57,550.22a12.94,12.94,0,1,0,12.93,12.93A12.93,12.93,0,0,0,385.57,550.22Zm0,20.36a7.43,7.43,0,1,1,7.43-7.43A7.43,7.43,0,0,1,385.57,570.58Z"/><path class="cls-3" d="M223,490.89a32.65,32.65,0,1,0,32.65,32.65A32.65,32.65,0,0,0,223,490.89Zm0,51.4a18.75,18.75,0,1,1,18.75-18.75A18.75,18.75,0,0,1,223,542.29Z"/><path class="cls-3" d="M119.74,356.73a25.7,25.7,0,1,0,25.7,25.7A25.69,25.69,0,0,0,119.74,356.73Zm0,40.46a14.76,14.76,0,1,1,14.76-14.76A14.76,14.76,0,0,1,119.74,397.19Z"/><path class="cls-3" d="M563.79,92.71a12.93,12.93,0,1,0,12.93,12.93A12.93,12.93,0,0,0,563.79,92.71Zm0,20.35a7.43,7.43,0,1,1,7.43-7.42A7.43,7.43,0,0,1,563.79,113.06Z"/><path class="cls-3" d="M710.81,127.39A32.65,32.65,0,1,0,743.46,160,32.65,32.65,0,0,0,710.81,127.39Zm0,51.4A18.75,18.75,0,1,1,729.56,160,18.75,18.75,0,0,1,710.81,178.79Z"/><path class="cls-3" d="M821.79,267.27a25.71,25.71,0,1,0,25.7,25.7A25.7,25.7,0,0,0,821.79,267.27Zm0,40.47A14.77,14.77,0,1,1,836.55,293,14.76,14.76,0,0,1,821.79,307.74Z"/></g></g></svg>