<svg xmlns="http://www.w3.org/2000/svg" xmlns:xlink="http://www.w3.org/1999/xlink" viewBox="0 0 408.05 276.23"><defs><style>.cls-1{fill:url(#linear-gradient);}.cls-2{fill:url(#linear-gradient-2);}.cls-3{fill:#bebebe;}.cls-4{fill:url(#linear-gradient-3);}.cls-5{fill:url(#linear-gradient-4);}.cls-6{fill:#dbdbdb;}.cls-7{fill:#9f9f9f;}.cls-8{fill:red;}.cls-9{fill:url(#linear-gradient-5);}.cls-10{fill:url(#linear-gradient-6);}.cls-11{fill:url(#linear-gradient-7);}.cls-12{fill:#f7941d;}.cls-13{fill:#fff;}.cls-14{fill:#fbb03b;}.cls-15{fill:url(#linear-gradient-8);}.cls-16{fill:url(#linear-gradient-9);}.cls-17{fill:url(#linear-gradient-10);}.cls-18{fill:url(#linear-gradient-11);}.cls-19{fill:url(#linear-gradient-12);}.cls-20{fill:url(#linear-gradient-13);}.cls-21{fill:url(#linear-gradient-14);}.cls-22{fill:url(#linear-gradient-15);}.cls-23{fill:url(#linear-gradient-16);}.cls-24{fill:url(#linear-gradient-17);}.cls-25{fill:url(#linear-gradient-18);}.cls-26{fill:url(#linear-gradient-19);}.cls-27{fill:url(#linear-gradient-20);}.cls-28{fill:url(#linear-gradient-21);}.cls-29{fill:url(#linear-gradient-22);}.cls-30{fill:url(#linear-gradient-23);}.cls-31{fill:url(#linear-gradient-24);}.cls-32{fill:url(#linear-gradient-25);}.cls-33{fill:url(#linear-gradient-26);}.cls-34{fill:url(#linear-gradient-27);}.cls-35{fill:url(#linear-gradient-28);}.cls-36{fill:#0071bc;}.cls-37{fill:#29abe2;}</style><linearGradient id="linear-gradient" x1="354.24" y1="133.29" x2="-42.7" y2="134.78" gradientUnits="userSpaceOnUse"><stop offset="0" stop-color="#ebebeb"/><stop offset="1" stop-color="#f5f5f5"/></linearGradient><linearGradient id="linear-gradient-2" x1="439.5" y1="-280.09" x2="273.07" y2="30.51" gradientUnits="userSpaceOnUse"><stop offset="0" stop-color="#515151"/><stop offset="1" stop-color="#5e5e5e"/></linearGradient><linearGradient id="linear-gradient-3" x1="337.65" y1="-334.67" x2="171.21" y2="-24.07" xlink:href="#linear-gradient-2"/><linearGradient id="linear-gradient-4" x1="540.76" y1="-225.83" x2="374.32" y2="84.77" xlink:href="#linear-gradient-2"/><linearGradient id="linear-gradient-5" x1="66.95" y1="181.36" x2="123.56" y2="181.36" xlink:href="#linear-gradient"/><linearGradient id="linear-gradient-6" x1="172.93" y1="137.14" x2="260.45" y2="137.14" xlink:href="#linear-gradient"/><linearGradient id="linear-gradient-7" x1="301.5" y1="104.46" x2="340.42" y2="104.46" xlink:href="#linear-gradient"/><linearGradient id="linear-gradient-8" x1="-405.59" y1="1676.39" x2="-387.87" y2="1676.39" gradientTransform="matrix(0.94, -0.35, 0.35, 0.94, -9.13, -1493.92)" gradientUnits="userSpaceOnUse"><stop offset="0"/><stop offset="1" stop-color="#0d0d0d"/></linearGradient><linearGradient id="linear-gradient-9" x1="180.8" y1="179.14" x2="188.66" y2="179.14" gradientTransform="matrix(1, 0, 0, 1, 0, 0)" xlink:href="#linear-gradient-8"/><linearGradient id="linear-gradient-10" x1="177.52" y1="-1856.35" x2="174.97" y2="-1848.77" gradientTransform="translate(-794.19 1759.44) rotate(26.1)" gradientUnits="userSpaceOnUse"><stop offset="0" stop-color="#a6a6a6"/><stop offset="1" stop-color="#c2c2c2"/></linearGradient><linearGradient id="linear-gradient-11" x1="133.63" y1="279.68" x2="133.81" y2="299.46" gradientTransform="matrix(1, 0, 0, 1, 0, 0)" xlink:href="#linear-gradient-8"/><linearGradient id="linear-gradient-12" x1="129.25" y1="255.06" x2="128.95" y2="252.32" gradientTransform="matrix(1, 0, 0, 1, 0, 0)" xlink:href="#linear-gradient-10"/><linearGradient id="linear-gradient-13" x1="159.26" y1="279.68" x2="159.44" y2="299.46" gradientTransform="matrix(1, 0, 0, 1, 0, 0)" xlink:href="#linear-gradient-8"/><linearGradient id="linear-gradient-14" x1="154.59" y1="255.06" x2="154.27" y2="252.18" gradientTransform="matrix(1, 0, 0, 1, 0, 0)" xlink:href="#linear-gradient-10"/><linearGradient id="linear-gradient-15" x1="178.97" y1="210.16" x2="141" y2="212.87" gradientTransform="matrix(1, 0, 0, 1, 0, 0)" xlink:href="#linear-gradient-8"/><linearGradient id="linear-gradient-16" x1="178.84" y1="208.34" x2="140.87" y2="211.05" gradientTransform="matrix(1, 0, 0, 1, 0, 0)" xlink:href="#linear-gradient-8"/><linearGradient id="linear-gradient-17" x1="-10312.16" y1="133.2" x2="-10337.12" y2="207.37" gradientTransform="matrix(-1, 0, 0, 1, -10168.06, 0)" gradientUnits="userSpaceOnUse"><stop offset="0" stop-color="#858585"/><stop offset="1" stop-color="#a6a6a6"/></linearGradient><linearGradient id="linear-gradient-18" x1="148.19" y1="128.04" x2="148.33" y2="118.44" gradientTransform="matrix(1, 0, 0, 1, 0, 0)" xlink:href="#linear-gradient-10"/><linearGradient id="linear-gradient-19" x1="805.62" y1="-1325.63" x2="788.84" y2="-1312.8" gradientTransform="translate(-959.95 1192.08) rotate(14.65)" xlink:href="#linear-gradient-10"/><linearGradient id="linear-gradient-20" x1="155.43" y1="115.78" x2="145.46" y2="99.78" gradientTransform="matrix(1, 0, 0, 1, 0, 0)" xlink:href="#linear-gradient-8"/><linearGradient id="linear-gradient-21" x1="803.53" y1="-1328.35" x2="786.76" y2="-1315.52" gradientTransform="translate(-959.95 1192.08) rotate(14.65)" xlink:href="#linear-gradient-10"/><linearGradient id="linear-gradient-22" x1="128" y1="86.12" x2="142.07" y2="186.94" gradientUnits="userSpaceOnUse"><stop offset="0" stop-color="#5f5f5f"/><stop offset="1" stop-color="#787878"/></linearGradient><linearGradient id="linear-gradient-23" x1="158.35" y1="146.99" x2="158.54" y2="146.99" xlink:href="#linear-gradient-22"/><linearGradient id="linear-gradient-24" x1="155.34" y1="113.01" x2="153.91" y2="114.1" gradientTransform="matrix(1, 0, 0, 1, 0, 0)" xlink:href="#linear-gradient-8"/><linearGradient id="linear-gradient-25" x1="161.67" y1="106.23" x2="141.9" y2="121.36" gradientTransform="matrix(1, 0, 0, 1, 0, 0)" xlink:href="#linear-gradient-8"/><linearGradient id="linear-gradient-26" x1="164.95" y1="107.16" x2="147.7" y2="120.36" gradientTransform="matrix(1, 0, 0, 1, 0, 0)" xlink:href="#linear-gradient-8"/><linearGradient id="linear-gradient-27" x1="143.14" y1="173.69" x2="137.07" y2="191.71" gradientTransform="matrix(1, 0, 0, 1, 0, 0)" xlink:href="#linear-gradient-10"/><linearGradient id="linear-gradient-28" x1="194.49" y1="174.94" x2="38.18" y2="251.53" gradientUnits="userSpaceOnUse"><stop offset="0"/><stop offset="1"/></linearGradient></defs><title>Asset 2</title><g id="Layer_2" data-name="Layer 2"><g id="Layer_1-2" data-name="Layer 1"><path class="cls-1" d="M408.05,193.91a61.21,61.21,0,0,0-14.92-40l-8.56-9.9s-38.64-34.59-39.31-72.85-18-43.71-59.54-46.86C250.57,21.64,210,15.14,176.9,36.24a82.85,82.85,0,0,1-48.81,12.9l-37.93-2A82.27,82.27,0,0,0,39.22,61.56C17.09,76.79-6.84,105.13,1.81,154.23a149,149,0,0,1,2.46,25.53v20.8a33.84,33.84,0,0,0,32.46,34L321.39,245.8a103.69,103.69,0,0,0,78.14-31A29.77,29.77,0,0,0,408.05,193.91Z"/><path class="cls-2" d="M249.94,62a3.09,3.09,0,0,0-1-2.24,3.12,3.12,0,0,0-2.34-.78l-86.1,7.46a3.14,3.14,0,0,0-2.88,3.09V242.56a3.08,3.08,0,0,0,3.2,3H251a3,3,0,0,0,3.1-3.07Z"/><path class="cls-3" d="M174.65,74.93l-6.75.44a1.45,1.45,0,0,0-1.27,1.49V234.74a1.25,1.25,0,0,0,1.25,1.35h6.86a1.35,1.35,0,0,0,1.33-1.39L176,76.23A1.24,1.24,0,0,0,174.65,74.93Z"/><path class="cls-3" d="M190.59,73.88l-6.87.45a1.59,1.59,0,0,0-1.43,1.51l.16,158.85a1.45,1.45,0,0,0,1.45,1.4h6.95a1.28,1.28,0,0,0,1.24-1.4L191.82,75.2A1.19,1.19,0,0,0,190.59,73.88Z"/><path class="cls-3" d="M206.75,72.82l-7,.46a1.35,1.35,0,0,0-1.16,1.5l.34,159.9c0,.8.43,1.41,1.18,1.41h7a1.53,1.53,0,0,0,1.54-1.41l-.44-160.55A1.42,1.42,0,0,0,206.75,72.82Z"/><path class="cls-3" d="M223.11,71.75l-7.06.46a1.46,1.46,0,0,0-1.29,1.52l.51,160.94a1.34,1.34,0,0,0,1.32,1.42h7.13a1.43,1.43,0,0,0,1.44-1.42l-.62-161.6A1.33,1.33,0,0,0,223.11,71.75Z"/><path class="cls-3" d="M239.69,70.66l-7.15.47a1.58,1.58,0,0,0-1.43,1.53l.69,162a1.46,1.46,0,0,0,1.46,1.43h7.23a1.36,1.36,0,0,0,1.34-1.43L241,72A1.27,1.27,0,0,0,239.69,70.66Z"/><path class="cls-4" d="M103.16,88.47a2.06,2.06,0,0,0-2-2h-66a2.21,2.21,0,0,0-2.1,2.14v154a3.18,3.18,0,0,0,3.18,3.1l66.68-.18a3.11,3.11,0,0,0,2.21-.93,3.22,3.22,0,0,0,.89-2.26Z"/><path class="cls-3" d="M98,93.26H37.4a.67.67,0,0,0-.62.7l0,4.51a.66.66,0,0,0,.64.66l60.64,0a.73.73,0,0,0,.74-.64V94A1,1,0,0,0,98,93.26Z"/><path class="cls-3" d="M98.09,104.53l-60.54,0a.66.66,0,0,0-.66.65l0,4.47a.64.64,0,0,0,.63.64l60.55,0a.73.73,0,0,0,.74-.64v-4.49A.74.74,0,0,0,98.09,104.53Z"/><path class="cls-3" d="M98.09,115.66l-60.46-.07a.65.65,0,0,0-.65.64l0,4.47a.64.64,0,0,0,.63.64l60.46.08a.74.74,0,0,0,.74-.64V116.3A.74.74,0,0,0,98.09,115.66Z"/><path class="cls-3" d="M98.09,126.76l-60.37-.1a.65.65,0,0,0-.65.64l0,4.45a.64.64,0,0,0,.63.64l60.37.12a.74.74,0,0,0,.74-.64V127.4A.74.74,0,0,0,98.09,126.76Z"/><path class="cls-3" d="M98.09,137.83l-60.28-.13a.64.64,0,0,0-.65.64l0,4.43a.63.63,0,0,0,.62.64l60.29.15a.73.73,0,0,0,.74-.64v-4.45A.74.74,0,0,0,98.09,137.83Z"/><path class="cls-3" d="M98.09,148.87l-60.2-.16a.65.65,0,0,0-.65.63l0,4.43a.63.63,0,0,0,.63.63l60.21.18a.73.73,0,0,0,.73-.63v-4.44A.74.74,0,0,0,98.09,148.87Z"/><path class="cls-3" d="M98.09,159.88,38,159.68a.64.64,0,0,0-.65.63l0,4.42a.63.63,0,0,0,.63.63l60.12.21a.73.73,0,0,0,.73-.63v-4.42A.73.73,0,0,0,98.09,159.88Z"/><path class="cls-3" d="M98.09,170.85l-60-.22a.64.64,0,0,0-.65.62l0,4.4a.63.63,0,0,0,.62.64l60,.24a.73.73,0,0,0,.73-.63v-4.41A.74.74,0,0,0,98.09,170.85Z"/><path class="cls-3" d="M98.09,181.8l-59.94-.26a.65.65,0,0,0-.65.63l0,4.38a.62.62,0,0,0,.62.63l60,.28a.72.72,0,0,0,.73-.63v-4.4A.73.73,0,0,0,98.09,181.8Z"/><path class="cls-3" d="M98.09,191.9l-59.86-.29a.65.65,0,0,0-.65.63l0,4.38a.63.63,0,0,0,.62.63l59.87.3a.72.72,0,0,0,.73-.62v-4.39A.75.75,0,0,0,98.09,191.9Z"/><path class="cls-3" d="M98.1,202.79l-59.78-.32a.64.64,0,0,0-.65.62l0,4.37a.62.62,0,0,0,.62.62l59.79.34a.72.72,0,0,0,.73-.62v-4.38A.73.73,0,0,0,98.1,202.79Z"/><path class="cls-3" d="M98.1,213.64l-59.7-.35a.63.63,0,0,0-.64.62l0,4.35a.63.63,0,0,0,.62.63l59.7.37a.72.72,0,0,0,.73-.62v-4.37A.74.74,0,0,0,98.1,213.64Z"/><path class="cls-3" d="M98.1,224.47l-59.61-.39a.64.64,0,0,0-.65.62l0,4.34a.65.65,0,0,0,.62.63l59.62.39a.7.7,0,0,0,.73-.61v-4.36A.73.73,0,0,0,98.1,224.47Z"/><path class="cls-5" d="M364.39,89.55a3.16,3.16,0,0,0-3.09-3.11H297.5a3.31,3.31,0,0,0-3.2,3.24V242.56a3.18,3.18,0,0,0,3.18,3.1l66.68-.18a3.11,3.11,0,0,0,2.21-.93,3.22,3.22,0,0,0,.89-2.26Z"/><path class="cls-3" d="M315.76,92.87H299.27c-.49,0-.75.51-.75,1v3c0,.52.26.87.75.87h16.49c.49,0,1.12-.35,1.12-.87v-3A1.21,1.21,0,0,0,315.76,92.87Z"/><path class="cls-3" d="M337.82,92.87H321.34c-.49,0-.75.51-.75,1v3c0,.52.26.87.75.87h16.48a.9.9,0,0,0,.94-.87v-3A1,1,0,0,0,337.82,92.87Z"/><path class="cls-3" d="M359.89,92.87H343.4a1,1,0,0,0-.92,1v3a.88.88,0,0,0,.92.87h16.49a.91.91,0,0,0,.95-.87v-3A1.05,1.05,0,0,0,359.89,92.87Z"/><path class="cls-3" d="M315.76,104.79H299.27c-.49,0-.75.39-.75.91v3c0,.52.26,1,.75,1h16.49a1.18,1.18,0,0,0,1.12-1v-3C316.88,105.18,316.25,104.79,315.76,104.79Z"/><path class="cls-3" d="M337.82,104.79H321.34c-.49,0-.75.39-.75.91v3c0,.52.26,1,.75,1h16.48a1,1,0,0,0,.94-1v-3A.93.93,0,0,0,337.82,104.79Z"/><path class="cls-3" d="M359.89,104.79H343.4a.92.92,0,0,0-.92.91v3a1,1,0,0,0,.92,1h16.49a1,1,0,0,0,.95-1v-3A.94.94,0,0,0,359.89,104.79Z"/><path class="cls-3" d="M315.76,116.51H299.27c-.49,0-.75.47-.75,1v3c0,.52.26.91.75.91h16.49c.49,0,1.12-.39,1.12-.91v-3A1.18,1.18,0,0,0,315.76,116.51Z"/><path class="cls-3" d="M337.82,116.51H321.34c-.49,0-.75.47-.75,1v3c0,.52.26.91.75.91h16.48a.93.93,0,0,0,.94-.91v-3A1,1,0,0,0,337.82,116.51Z"/><path class="cls-3" d="M359.89,116.51H343.4a1,1,0,0,0-.92,1v3a.92.92,0,0,0,.92.91h16.49a.94.94,0,0,0,.95-.91v-3A1,1,0,0,0,359.89,116.51Z"/><path class="cls-3" d="M315.76,128.43H299.27c-.49,0-.75.35-.75.87v3c0,.53.26,1,.75,1h16.49a1.21,1.21,0,0,0,1.12-1v-3C316.88,128.78,316.25,128.43,315.76,128.43Z"/><path class="cls-3" d="M337.82,128.43H321.34c-.49,0-.75.35-.75.87v3c0,.53.26,1,.75,1h16.48a1,1,0,0,0,.94-1v-3A.9.9,0,0,0,337.82,128.43Z"/><path class="cls-3" d="M359.89,128.43H343.4a.88.88,0,0,0-.92.87v3a1,1,0,0,0,.92,1h16.49a1.05,1.05,0,0,0,.95-1v-3A.91.91,0,0,0,359.89,128.43Z"/><path class="cls-3" d="M315.76,140.16H299.27c-.49,0-.75.42-.75.94v3c0,.53.26,1,.75,1h16.49a1.14,1.14,0,0,0,1.12-1v-3C316.88,140.58,316.25,140.16,315.76,140.16Z"/><path class="cls-3" d="M337.82,140.16H321.34c-.49,0-.75.42-.75.94v3c0,.53.26,1,.75,1h16.48a1,1,0,0,0,.94-1v-3A1,1,0,0,0,337.82,140.16Z"/><path class="cls-3" d="M359.89,140.16H343.4a.94.94,0,0,0-.92.94v3a1,1,0,0,0,.92,1h16.49a1,1,0,0,0,.95-1v-3A1,1,0,0,0,359.89,140.16Z"/><path class="cls-3" d="M315.76,151.88H299.27c-.49,0-.75.5-.75,1v3c0,.53.26.88.75.88h16.49c.49,0,1.12-.35,1.12-.88v-3A1.2,1.2,0,0,0,315.76,151.88Z"/><path class="cls-3" d="M337.82,151.88H321.34c-.49,0-.75.5-.75,1v3c0,.53.26.88.75.88h16.48a.9.9,0,0,0,.94-.88v-3A1,1,0,0,0,337.82,151.88Z"/><path class="cls-3" d="M359.89,151.88H343.4a1,1,0,0,0-.92,1v3a.88.88,0,0,0,.92.88h16.49a.91.91,0,0,0,.95-.88v-3A1,1,0,0,0,359.89,151.88Z"/><path class="cls-3" d="M315.76,163.8H299.27c-.49,0-.75.37-.75.9v3c0,.53.26,1,.75,1h16.49a1.18,1.18,0,0,0,1.12-1v-3C316.88,164.17,316.25,163.8,315.76,163.8Z"/><path class="cls-3" d="M337.82,163.8H321.34c-.49,0-.75.37-.75.9v3c0,.53.26,1,.75,1h16.48a1,1,0,0,0,.94-1v-3A.92.92,0,0,0,337.82,163.8Z"/><path class="cls-3" d="M359.89,163.8H343.4a.9.9,0,0,0-.92.9v3a1,1,0,0,0,.92,1h16.49a1,1,0,0,0,.95-1v-3A.93.93,0,0,0,359.89,163.8Z"/><path class="cls-3" d="M315.76,175.52H299.27c-.49,0-.75.45-.75,1v3c0,.53.26.93.75.93h16.49c.49,0,1.12-.4,1.12-.93v-3A1.16,1.16,0,0,0,315.76,175.52Z"/><path class="cls-3" d="M337.82,175.52H321.34c-.49,0-.75.45-.75,1v3c0,.53.26.93.75.93h16.48a.94.94,0,0,0,.94-.93v-3A1,1,0,0,0,337.82,175.52Z"/><path class="cls-3" d="M359.89,175.52H343.4a1,1,0,0,0-.92,1v3a.93.93,0,0,0,.92.93h16.49a1,1,0,0,0,.95-.93v-3A1,1,0,0,0,359.89,175.52Z"/><path class="cls-3" d="M315.76,187.44H299.27c-.49,0-.75.33-.75.86v3c0,.52.26,1,.75,1h16.49a1.22,1.22,0,0,0,1.12-1v-3C316.88,187.77,316.25,187.44,315.76,187.44Z"/><path class="cls-3" d="M337.82,187.44H321.34c-.49,0-.75.33-.75.86v3c0,.52.26,1,.75,1h16.48a1.05,1.05,0,0,0,.94-1v-3A.88.88,0,0,0,337.82,187.44Z"/><path class="cls-3" d="M359.89,187.44H343.4a.87.87,0,0,0-.92.86v3a1,1,0,0,0,.92,1h16.49a1.06,1.06,0,0,0,.95-1v-3A.89.89,0,0,0,359.89,187.44Z"/><path class="cls-3" d="M315.76,199.16H299.27c-.49,0-.75.41-.75.94v3c0,.52.26,1,.75,1h16.49a1.16,1.16,0,0,0,1.12-1v-3C316.88,199.57,316.25,199.16,315.76,199.16Z"/><path class="cls-3" d="M337.82,199.16H321.34c-.49,0-.75.41-.75.94v3c0,.52.26,1,.75,1h16.48a1,1,0,0,0,.94-1v-3A1,1,0,0,0,337.82,199.16Z"/><path class="cls-3" d="M359.89,199.16H343.4a.93.93,0,0,0-.92.94v3a1,1,0,0,0,.92,1h16.49a1,1,0,0,0,.95-1v-3A1,1,0,0,0,359.89,199.16Z"/><path class="cls-3" d="M315.76,210.88H299.27c-.49,0-.75.49-.75,1v3c0,.52.26.89.75.89h16.49c.49,0,1.12-.37,1.12-.89v-3A1.2,1.2,0,0,0,315.76,210.88Z"/><path class="cls-3" d="M337.82,210.88H321.34c-.49,0-.75.49-.75,1v3c0,.52.26.89.75.89h16.48a.92.92,0,0,0,.94-.89v-3A1,1,0,0,0,337.82,210.88Z"/><path class="cls-3" d="M359.89,210.88H343.4a1,1,0,0,0-.92,1v3a.9.9,0,0,0,.92.89h16.49a.92.92,0,0,0,.95-.89v-3A1,1,0,0,0,359.89,210.88Z"/><path class="cls-3" d="M315.76,222.8H299.27c-.49,0-.75.37-.75.89v3c0,.52.26,1,.75,1h16.49a1.2,1.2,0,0,0,1.12-1v-3C316.88,223.17,316.25,222.8,315.76,222.8Z"/><path class="cls-3" d="M337.82,222.8H321.34c-.49,0-.75.37-.75.89v3c0,.52.26,1,.75,1h16.48a1,1,0,0,0,.94-1v-3A.92.92,0,0,0,337.82,222.8Z"/><path class="cls-3" d="M359.89,222.8H343.4a.9.9,0,0,0-.92.89v3a1,1,0,0,0,.92,1h16.49a1,1,0,0,0,.95-1v-3A.92.92,0,0,0,359.89,222.8Z"/><path class="cls-6" d="M329.73,143.19a16.57,16.57,0,0,1,26,20.49h0a17.71,17.71,0,0,0-3.5,14.15,21.1,21.1,0,0,1-4.18,16.86h0a19.8,19.8,0,0,0-3.63,17.14,24,24,0,1,1-42.1-8.91c.44-.56.9-1.09,1.37-1.59a24.73,24.73,0,0,0,6.65-18.44,21.14,21.14,0,0,1,9.55-19,13.9,13.9,0,0,0,6.28-11.11A16.47,16.47,0,0,1,329.73,143.19Z"/><path class="cls-3" d="M342,153.3s-.15.3-.41.85-.65,1.39-1.14,2.44c-.23.53-.49,1.11-.78,1.75l-.44,1-.46,1.08c-.31.74-.65,1.53-1,2.37s-.69,1.72-1.07,2.64-.74,1.88-1.13,2.88-.79,2-1.18,3.09c-.77,2.14-1.62,4.38-2.41,6.74-.4,1.17-.8,2.36-1.22,3.57s-.78,2.45-1.18,3.69c-.81,2.47-1.53,5-2.28,7.56-.19.63-.39,1.26-.55,1.9s-.35,1.28-.52,1.91c-.34,1.28-.69,2.54-1,3.8-.09.32-.17.63-.26.94s-.15.63-.23.95c-.15.62-.31,1.25-.46,1.87-.3,1.24-.6,2.46-.89,3.67s-.55,2.39-.8,3.56-.5,2.31-.74,3.42c-.51,2.22-.87,4.34-1.24,6.29-.18,1-.35,1.91-.52,2.8q-.12.66-.24,1.29c-.08.42-.14.84-.2,1.23-.25,1.6-.47,3-.64,4.13-.36,2.29-.57,3.59-.57,3.59h0a.35.35,0,1,1-.69-.11h0l.58-3.6c.18-1.14.4-2.53.66-4.13.06-.4.12-.81.2-1.23s.16-.86.25-1.3c.17-.89.35-1.83.53-2.81.38-1.95.75-4.07,1.27-6.29.24-1.11.49-2.26.75-3.42s.5-2.37.81-3.57.61-2.44.91-3.68c.16-.62.31-1.24.47-1.87.07-.31.15-.63.23-.94s.17-.63.26-.94c.34-1.26.69-2.53,1-3.8.17-.64.35-1.28.52-1.92s.38-1.27.56-1.9c.77-2.54,1.5-5.09,2.32-7.57q.6-1.86,1.2-3.69c.41-1.21.83-2.4,1.23-3.57.79-2.36,1.66-4.6,2.44-6.74.39-1.07.81-2.1,1.19-3.1s.76-2,1.15-2.88.73-1.8,1.08-2.64.69-1.62,1-2.36l.46-1.08c.16-.35.3-.68.45-1,.28-.64.55-1.22.78-1.75.49-1,.88-1.88,1.15-2.44s.42-.85.42-.85h0a.21.21,0,0,1,.27-.08A.19.19,0,0,1,342,153.3Z"/><path class="cls-3" d="M335.89,167.56a.2.2,0,0,1-.18-.2.21.21,0,0,1,.21-.19c4.84.15,13.47-6.21,13.56-6.27a.19.19,0,0,1,.23.31c-.35.27-8.83,6.5-13.81,6.35Z"/><path class="cls-3" d="M335.63,167.36a.19.19,0,0,1-.14-.09c0-.06-3.86-6.27-4.43-12.09a.2.2,0,0,1,.18-.21.19.19,0,0,1,.21.18c.56,5.72,4.33,11.85,4.37,11.91a.2.2,0,0,1-.06.27A.21.21,0,0,1,335.63,167.36Z"/><path class="cls-3" d="M327.76,191.19a.2.2,0,0,1-.17-.16.19.19,0,0,1,.17-.22c7.85-1.07,15.32-8,15.39-8.1a.19.19,0,1,1,.27.28c-.07.07-7.63,7.12-15.61,8.2Z"/><path class="cls-3" d="M327.54,191.24a.24.24,0,0,1-.1-.05c-.05-.05-5.88-4.95-7.31-15.23a.2.2,0,0,1,.17-.22.21.21,0,0,1,.22.17c1.41,10.13,7.12,14.93,7.17,15a.19.19,0,0,1,0,.28A.24.24,0,0,1,327.54,191.24Z"/><path class="cls-3" d="M320,220.92l-.1,0a28.26,28.26,0,0,1-9-14.64A.2.2,0,0,1,311,206a.2.2,0,0,1,.23.15,27.76,27.76,0,0,0,8.85,14.42.19.19,0,0,1,0,.27A.2.2,0,0,1,320,220.92Z"/><path class="cls-3" d="M320.23,221a.19.19,0,0,1-.17-.18.19.19,0,0,1,.18-.21c.08,0,7.56-.49,14.71-7.77a.19.19,0,0,1,.28,0,.18.18,0,0,1,0,.27c-7.26,7.4-14.89,7.88-15,7.89Z"/><path class="cls-3" d="M366.2,183.34a13.12,13.12,0,1,0-25.61-5.69h0a14.1,14.1,0,0,1-6.92,9.25,16.68,16.68,0,0,0-8.24,11,15.71,15.71,0,0,1-8.69,10.81,19,19,0,1,0,26.56,21.35,16.13,16.13,0,0,0,.29-1.64,19.61,19.61,0,0,1,8-13.32,16.71,16.71,0,0,0,6.55-9.94,16.94,16.94,0,0,0,.3-5.43,11,11,0,0,1,3.67-9.42A13,13,0,0,0,366.2,183.34Z"/><path class="cls-7" d="M354.15,181l-.32.68c-.2.46-.52,1.1-.92,1.93l-.68,1.36c-.24.5-.52,1-.81,1.6l-.95,1.81-1.07,2c-.37.7-.78,1.41-1.19,2.15s-.84,1.51-1.3,2.29c-.92,1.55-1.86,3.21-2.9,4.88l-1.57,2.55-1.66,2.58c-1.1,1.75-2.3,3.48-3.46,5.23l-.89,1.3c-.3.43-.6.86-.91,1.28q-.9,1.29-1.8,2.55l-.44.64c-.16.2-.31.41-.46.62l-.91,1.22-1.79,2.41c-.58.79-1.19,1.55-1.78,2.29l-1.71,2.19c-1.1,1.43-2.21,2.73-3.22,3.94L322,230.24l-.67.81-.65.75-2.19,2.49-1.92,2.16a.45.45,0,0,1-.65.05.47.47,0,0,1,0-.66h0l1.93-2.14,2.22-2.45.66-.73c.22-.26.44-.53.68-.8l1.46-1.72c1-1.2,2.13-2.48,3.24-3.89l1.73-2.17c.59-.73,1.21-1.48,1.79-2.27l1.81-2.38.93-1.21c.15-.21.3-.41.46-.61l.45-.63L335,212.3,336,211c.31-.42.6-.86.9-1.29,1.18-1.73,2.39-3.44,3.5-5.18L342,202l1.58-2.54c1.06-1.65,2-3.3,2.93-4.84.46-.78.89-1.54,1.31-2.28s.83-1.44,1.2-2.14.75-1.34,1.09-2,.65-1.24.95-1.8.57-1.1.82-1.59.47-1,.68-1.36c.4-.82.72-1.47.92-1.91l.32-.69h0a.17.17,0,0,1,.23-.09A.19.19,0,0,1,354.15,181Z"/><path class="cls-7" d="M348.26,191.87a.24.24,0,0,1-.13-.07c-2.6-3-3-11.32-3-11.67a.21.21,0,0,1,.19-.21.19.19,0,0,1,.2.19c0,.09.44,8.55,2.95,11.44a.19.19,0,0,1,0,.27A.17.17,0,0,1,348.26,191.87Z"/><path class="cls-7" d="M348.51,191.93a.19.19,0,0,1-.17-.17.19.19,0,0,1,.17-.22c.05,0,5.69-.77,9.48-3.29a.19.19,0,0,1,.27.05.2.2,0,0,1-.06.27c-3.86,2.58-9.58,3.35-9.64,3.36Z"/><path class="cls-7" d="M337.84,208.7a.24.24,0,0,1-.15-.09c-3.33-5.45-2.8-13.63-2.8-13.71a.2.2,0,1,1,.39,0c0,.08-.53,8.14,2.75,13.48a.19.19,0,0,1-.07.26A.14.14,0,0,1,337.84,208.7Z"/><path class="cls-7" d="M338.23,208.9a1.32,1.32,0,0,1-.32-.05.2.2,0,0,1-.16-.23.2.2,0,0,1,.23-.15c.06,0,5.86,1.09,12.76-3.11a.2.2,0,1,1,.2.34A20.34,20.34,0,0,1,338.23,208.9Z"/><path class="cls-7" d="M324.59,228.56a10,10,0,0,1-1.08-.17.18.18,0,0,1-.14-.23.19.19,0,0,1,.23-.15,21.93,21.93,0,0,0,13.25-1.8.19.19,0,0,1,.26.09.2.2,0,0,1-.08.26A22.18,22.18,0,0,1,324.59,228.56Z"/><path class="cls-7" d="M323.33,228.27a.21.21,0,0,1-.14-.07s-3.57-5-2.67-13.16a.19.19,0,0,1,.21-.18h0a.19.19,0,0,1,.17.22c-.87,8,2.58,12.84,2.61,12.88a.22.22,0,0,1,0,.28A.18.18,0,0,1,323.33,228.27Z"/><path class="cls-3" d="M41.34,177.71a13.37,13.37,0,0,1,26.53-3.3h0A14.31,14.31,0,0,0,74,184.46a17,17,0,0,1,7.3,12h0a16,16,0,0,0,7.77,11.81,19.36,19.36,0,1,1-29,19.09c-.07-.57-.11-1.14-.14-1.7a20,20,0,0,0-6.79-14.28,17,17,0,0,1-5.68-10.71,17.28,17.28,0,0,1,.21-5.53,11.16,11.16,0,0,0-2.8-9.91A13.27,13.27,0,0,1,41.34,177.71Z"/><path class="cls-7" d="M54.14,176.4l.26.72c.16.47.42,1.16.75,2l.56,1.44c.2.53.43,1.09.68,1.69s.51,1.25.79,1.92l.91,2.11c.31.74.66,1.5,1,2.28s.71,1.61,1.1,2.44c.79,1.65,1.59,3.41,2.5,5.2L64.06,199l1.45,2.77c.95,1.87,2,3.72,3,5.6.26.46.5.94.77,1.39l.81,1.39,1.6,2.74.39.68.41.66c.27.45.55.89.82,1.33l1.59,2.59c.52.86,1.07,1.68,1.59,2.49L78.08,223c1,1.55,2,3,2.9,4.28.46.65.89,1.28,1.31,1.88l.61.88c.19.28.4.55.59.81l2,2.71,1.74,2.36h0a.35.35,0,1,1-.56.42h0l-1.73-2.37-2-2.73c-.19-.26-.39-.53-.59-.82s-.4-.57-.6-.88l-1.31-1.89c-.9-1.33-1.91-2.75-2.89-4.31L76,220.93c-.53-.81-1.07-1.64-1.59-2.5l-1.59-2.61L72,214.49l-.41-.67-.39-.68-1.59-2.76c-.26-.46-.53-.92-.8-1.38s-.51-.94-.77-1.41c-1-1.88-2.07-3.74-3-5.62-.48-.94-1-1.87-1.44-2.78s-.9-1.84-1.35-2.74c-.9-1.8-1.69-3.57-2.48-5.23-.39-.83-.74-1.65-1.09-2.44s-.7-1.55-1-2.3-.61-1.44-.89-2.12-.54-1.32-.79-1.92-.47-1.17-.67-1.7-.39-1-.56-1.45c-.32-.87-.58-1.56-.74-2l-.26-.73a.21.21,0,0,1,.12-.25.2.2,0,0,1,.25.12Z"/><path class="cls-7" d="M58.71,188.09a.2.2,0,0,1-.14-.06.19.19,0,0,1,0-.28c2.82-2.68,4.08-11.23,4.09-11.32a.19.19,0,0,1,.22-.16.19.19,0,0,1,.17.22c-.05.36-1.29,8.77-4.21,11.55A.24.24,0,0,1,58.71,188.09Z"/><path class="cls-7" d="M58.45,188.12h0c-.06,0-5.79-1.35-9.46-4.33a.19.19,0,0,1,0-.28.21.21,0,0,1,.28,0c3.59,2.93,9.24,4.24,9.29,4.26a.19.19,0,0,1,.15.23A.19.19,0,0,1,58.45,188.12Z"/><path class="cls-7" d="M67.66,206.17a.16.16,0,0,1-.12,0,.19.19,0,0,1,0-.27c3.84-5.11,4.08-13.33,4.08-13.41a.21.21,0,0,1,.2-.19.2.2,0,0,1,.2.2c0,.08-.26,8.43-4.17,13.63A.21.21,0,0,1,67.66,206.17Z"/><path class="cls-7" d="M67,206.34a21.08,21.08,0,0,1-12.29-4.48.2.2,0,0,1,0-.28.2.2,0,0,1,.27,0c6.6,4.93,12.58,4.39,12.64,4.39a.19.19,0,0,1,.22.17.21.21,0,0,1-.18.22S67.34,206.34,67,206.34Z"/><path class="cls-7" d="M78.56,227.6a22.46,22.46,0,0,1-11.8-3.24A.2.2,0,1,1,67,224a22.36,22.36,0,0,0,13.27,3.11.19.19,0,0,1,.22.17.21.21,0,0,1-.17.22S79.62,227.6,78.56,227.6Z"/><path class="cls-7" d="M80.48,227.42a.18.18,0,0,1-.13,0,.18.18,0,0,1,0-.27s4-4.61,3.88-12.83a.2.2,0,0,1,.2-.19.19.19,0,0,1,.19.19c.12,8.38-3.94,13-4,13.09A.2.2,0,0,1,80.48,227.42Z"/><path class="cls-6" d="M92.35,146.15a16.61,16.61,0,1,0-27.93,18h0a17.76,17.76,0,0,1,2.15,14.46,21.13,21.13,0,0,0,2.57,17.22h0a19.84,19.84,0,0,1,2,17.45A24.05,24.05,0,1,0,114,208.37c-.39-.6-.79-1.17-1.22-1.72a24.81,24.81,0,0,1-4.89-19,21.12,21.12,0,0,0-3.11-14.74,21.54,21.54,0,0,0-4.61-5.11A13.9,13.9,0,0,1,95,156.09,16.57,16.57,0,0,0,92.35,146.15Z"/><path class="cls-3" d="M79.48,154.94s.12.31.33.9.53,1.45.92,2.54c.18.55.39,1.16.62,1.82l.34,1c.12.36.24.73.36,1.12l.79,2.46c.26.87.54,1.78.83,2.73s.57,2,.87,3,.6,2.1.9,3.2c.57,2.21,1.22,4.53,1.79,7,.3,1.21.6,2.44.9,3.68s.56,2.52.84,3.8c.59,2.55,1.08,5.16,1.61,7.76.13.66.27,1.3.38,2s.24,1.3.35,2l.69,3.89c0,.32.11.64.17,1l.15,1c.09.64.19,1.27.29,1.91.19,1.27.38,2.52.56,3.75s.34,2.45.49,3.64.29,2.35.43,3.49c.31,2.26.48,4.42.68,6.4q.15,1.49.27,2.85c0,.45.09.89.13,1.32s.06.85.09,1.25c.11,1.62.2,3,.28,4.19.15,2.32.24,3.65.24,3.65a.47.47,0,0,1-.93.06h0s-.07-1.32-.21-3.64c-.06-1.16-.14-2.56-.24-4.18,0-.4,0-.82-.08-1.24s-.07-.87-.11-1.32c-.08-.91-.16-1.86-.25-2.85-.18-2-.33-4.13-.62-6.39-.13-1.13-.27-2.29-.4-3.48s-.27-2.41-.46-3.64-.35-2.48-.53-3.74l-.27-1.91c-.05-.33-.09-.65-.14-1s-.11-.64-.16-1c-.22-1.29-.44-2.59-.65-3.89l-.33-2c-.11-.65-.25-1.3-.37-1.95-.51-2.61-1-5.22-1.55-7.77-.28-1.27-.55-2.54-.82-3.79s-.59-2.47-.88-3.68c-.55-2.43-1.19-4.75-1.75-7-.29-1.1-.6-2.16-.89-3.2s-.56-2-.85-3-.56-1.87-.82-2.74-.53-1.69-.77-2.46l-.36-1.11-.34-1c-.23-.66-.43-1.27-.62-1.82-.38-1.09-.68-2-.9-2.54s-.33-.89-.33-.89a.18.18,0,1,1,.33-.13Z"/><path class="cls-3" d="M83.88,169.89h0c-5-.32-12.85-7.35-13.18-7.65a.18.18,0,0,1,0-.27.19.19,0,0,1,.27,0c.08.08,8.1,7.24,13,7.55a.2.2,0,0,1,.18.21A.2.2,0,0,1,83.88,169.89Z"/><path class="cls-3" d="M84.16,169.71l-.12,0a.2.2,0,0,1,0-.28c0-.06,4.39-5.81,5.49-11.48a.21.21,0,0,1,.23-.15.2.2,0,0,1,.16.23c-1.12,5.75-5.52,11.58-5.57,11.64A.18.18,0,0,1,84.16,169.71Z"/><path class="cls-3" d="M89.74,194.25h0c-7.86-1.84-14.73-9.6-14.8-9.67a.2.2,0,0,1,0-.28.19.19,0,0,1,.27,0c.07.08,6.87,7.73,14.6,9.55a.19.19,0,0,1,.14.23A.19.19,0,0,1,89.74,194.25Z"/><path class="cls-3" d="M90,194.31a.21.21,0,0,1-.16-.08.19.19,0,0,1,0-.27c.06,0,6.21-4.3,8.59-14.27a.19.19,0,0,1,.23-.15.2.2,0,0,1,.15.24c-2.41,10.12-8.69,14.46-8.75,14.5A.2.2,0,0,1,90,194.31Z"/><path class="cls-3" d="M94.72,224.66a.19.19,0,0,1-.16-.09.2.2,0,0,1,.06-.27,27.88,27.88,0,0,0,10.2-13.55.2.2,0,0,1,.25-.13.21.21,0,0,1,.12.25,28.32,28.32,0,0,1-10.36,13.76A.2.2,0,0,1,94.72,224.66Z"/><path class="cls-3" d="M94.43,224.73h0c-.07,0-7.64-1.22-14.19-9.29a.2.2,0,0,1,.3-.25c6.45,7.95,13.88,9.14,13.95,9.16a.18.18,0,0,1,.16.22A.19.19,0,0,1,94.43,224.73Z"/><path class="cls-7" d="M168.57,108.52a3.11,3.11,0,0,0-3.22-3.06L101.91,108a2,2,0,0,0-1.91,2l3.22,135.61,64.14-.78a3.11,3.11,0,0,0,3.06-3.14Z"/><polygon class="cls-3" points="117.49 133.54 107.28 133.56 107.16 116.12 117.39 116.12 117.49 133.54"/><polygon class="cls-3" points="132.14 133.51 121.97 133.52 121.88 116.12 132.07 116.12 132.14 133.51"/><polygon class="cls-3" points="147.55 133.47 137.42 133.49 137.36 116.12 147.52 116.12 147.55 133.47"/><polygon class="cls-3" points="162.72 133.45 152.52 133.46 152.38 116.12 162.72 116.12 162.72 133.45"/><polygon class="cls-3" points="117.63 158.28 107.45 158.34 107.33 141.02 117.53 140.99 117.63 158.28"/><polygon class="cls-3" points="132.24 158.2 122.1 158.26 122.01 140.97 132.17 140.94 132.24 158.2"/><polygon class="cls-3" points="147.59 158.12 137.5 158.18 137.44 140.92 147.56 140.89 147.59 158.12"/><polygon class="cls-3" points="162.72 158.04 152.55 158.09 152.58 140.88 162.72 140.84 162.72 158.04"/><polygon class="cls-3" points="117.77 183.68 107.63 183.76 107.51 166.56 117.67 166.49 117.77 183.68"/><polygon class="cls-3" points="132.33 183.55 122.22 183.64 122.14 166.46 132.27 166.4 132.33 183.55"/><polygon class="cls-3" points="147.64 183.42 137.58 183.51 137.52 166.36 147.61 166.3 147.64 183.42"/><polygon class="cls-3" points="162.72 183.29 152.58 183.38 152.62 166.27 162.72 166.2 162.72 183.29"/><polygon class="cls-3" points="117.91 208.5 107.8 208.62 107.68 191.93 117.82 191.84 117.91 208.5"/><polygon class="cls-3" points="132.43 208.33 122.35 208.45 122.27 191.79 132.36 191.69 132.43 208.33"/><polygon class="cls-3" points="147.69 208.16 137.65 208.27 137.6 191.64 147.66 191.55 147.69 208.16"/><polygon class="cls-3" points="162.72 207.98 152.61 208.1 152.65 191.5 162.72 191.4 162.72 207.98"/><polygon class="cls-3" points="118.05 233.58 107.97 233.73 107.86 217.15 117.96 217.02 118.05 233.58"/><polygon class="cls-3" points="132.52 233.37 122.48 233.51 122.39 216.96 132.46 216.83 132.52 233.37"/><polygon class="cls-3" points="147.74 233.14 137.73 233.29 137.68 216.76 147.71 216.63 147.74 233.14"/><polygon class="cls-3" points="162.72 232.92 152.64 233.07 152.68 216.57 162.72 216.44 162.72 232.92"/><path class="cls-7" d="M316.11,129.29a3.11,3.11,0,0,0-3.19-3l-67.07,2.15a3.09,3.09,0,0,0-3,3.18l3.31,111.07a3.1,3.1,0,0,0,3.13,3L315,245a3.13,3.13,0,0,0,2.19-.94,3.09,3.09,0,0,0,.87-2.21Z"/><path class="cls-3" d="M309.12,134.49H249.39a1,1,0,0,0-1,1l.06,5.27a1.21,1.21,0,0,0,1.07,1.18l59.89.07a1.16,1.16,0,0,0,1-1.2l-.18-5.31A1.06,1.06,0,0,0,309.12,134.49Z"/><path class="cls-3" d="M309.5,146l-60-.1a1.11,1.11,0,0,0-1,1.12l.06,5.32a1.11,1.11,0,0,0,1.07,1.09l60.15.17a1.06,1.06,0,0,0,1-1.09l-.18-5.38A1.2,1.2,0,0,0,309.5,146Z"/><path class="cls-3" d="M309.91,158l-60.25-.21c-.59,0-1.06.27-1.06.83l.06,5.38a1,1,0,0,0,1.08,1l60.41.26a1,1,0,0,0,1.05-1l-.18-5.42C311,158.25,310.51,158,309.91,158Z"/><path class="cls-3" d="M310.3,169.69l-60.51-.31a1,1,0,0,0-1.06,1l.06,5.42c0,.57.49.89,1.08.89l60.68.37c.6,0,1.08-.31,1.06-.88l-.19-5.48A1,1,0,0,0,310.3,169.69Z"/><path class="cls-3" d="M310.7,181.51l-60.78-.42a1.06,1.06,0,0,0-1.06,1.07l.06,5.47a1.2,1.2,0,0,0,1.08,1.19l61,.49a1.16,1.16,0,0,0,1.06-1.2l-.19-5.52A1.15,1.15,0,0,0,310.7,181.51Z"/><path class="cls-3" d="M311.1,193.43l-61.05-.52a1.15,1.15,0,0,0-1.06,1.18l.06,5.52a1.12,1.12,0,0,0,1.09,1.1l61.23.59a1.07,1.07,0,0,0,1.06-1.09l-.19-5.57A1.27,1.27,0,0,0,311.1,193.43Z"/><path class="cls-3" d="M311.52,205.87l-61.33-.63c-.6,0-1.08.31-1.07.89l.06,5.57a1,1,0,0,0,1.09,1l61.51.71a1,1,0,0,0,1.06-1l-.19-5.62A1,1,0,0,0,311.52,205.87Z"/><path class="cls-3" d="M311.93,218l-61.61-.74a1,1,0,0,0-1.07,1l.06,5.62c0,.59.5.89,1.1.9l61.78.81c.61,0,1.09-.28,1.07-.87l-.19-5.67A1.12,1.12,0,0,0,311.93,218Z"/><path class="cls-3" d="M312.34,230.26l-61.88-.86a1.11,1.11,0,0,0-1.08,1.13l.06,5.67a1.23,1.23,0,0,0,1.11,1.21l62.07.93a1.14,1.14,0,0,0,1.07-1.19l-.2-5.72A1.22,1.22,0,0,0,312.34,230.26Z"/><path class="cls-8" d="M366.74,114.93c-11.07-1.85-9.86,11.42-6.54,20.7s4.53,8.88,5.53,5.05C365.73,140.68,377.82,116.77,366.74,114.93Zm-2,10.67a3.52,3.52,0,1,1,3.51-3.52A3.52,3.52,0,0,1,364.73,125.6Z"/><path class="cls-8" d="M116.79,86.37c-11.83-2-10.53,12.19-7,22.11s4.83,9.48,5.91,5.39C115.71,113.87,128.62,88.34,116.79,86.37Zm-2.16,11.39A3.76,3.76,0,1,1,118.39,94,3.75,3.75,0,0,1,114.63,97.76Z"/><path class="cls-8" d="M35.65,103.92c-9.76-1.63-8.7,10.07-5.77,18.26s4,7.83,4.88,4.45C34.76,126.63,45.42,105.54,35.65,103.92Zm-1.78,9.4a3.1,3.1,0,1,1,3.1-3.1A3.1,3.1,0,0,1,33.87,113.32Z"/><path class="cls-9" d="M100.86,219.25a.24.24,0,0,1-.25-.24.24.24,0,0,1,.24-.24l1,0a.25.25,0,0,1,.26.24.25.25,0,0,1-.24.25l-1,0Zm-1,0h0l-1,0a.24.24,0,0,1-.23-.26.25.25,0,0,1,.26-.23l1,0a.23.23,0,0,1,.24.25A.24.24,0,0,1,99.88,219.25Zm2.93-.08a.25.25,0,0,1,0-.49l1-.09a.24.24,0,0,1,.27.22.24.24,0,0,1-.21.27l-1,.09Zm-4.88,0h0l-1-.1a.25.25,0,0,1,0-.49l1,.1a.25.25,0,0,1,0,.49Zm6.82-.19a.23.23,0,0,1-.24-.2.24.24,0,0,1,.2-.28l.46-.07.5-.09a.25.25,0,0,1,.28.2.23.23,0,0,1-.19.28l-.51.09-.47.07Zm-8.76,0h0l-1-.16a.26.26,0,0,1-.2-.29.24.24,0,0,1,.29-.19l1,.15a.25.25,0,0,1,0,.49Zm10.68-.29a.23.23,0,0,1-.23-.2.24.24,0,0,1,.19-.29l1-.2a.25.25,0,0,1,.1.48l-1,.2Zm-12.61-.06h0l-1-.22a.25.25,0,1,1,.12-.48l.94.22a.24.24,0,0,1,.19.29A.24.24,0,0,1,94.06,218.56Zm14.52-.37a.25.25,0,0,1-.06-.48l.94-.25a.25.25,0,0,1,.3.17.24.24,0,0,1-.17.3l-1,.25Zm-16.42-.09H92.1c-.32-.08-.63-.17-.95-.27a.24.24,0,0,1-.16-.3.25.25,0,0,1,.31-.17c.3.1.62.19.93.27a.25.25,0,0,1,.17.3A.25.25,0,0,1,92.16,218.1Zm18.31-.43a.24.24,0,0,1-.07-.48l.92-.29a.25.25,0,0,1,.31.16.24.24,0,0,1-.15.31l-.94.29Zm-20.18-.14h-.07l-.93-.32a.26.26,0,0,1-.15-.32.24.24,0,0,1,.31-.14l.92.32a.25.25,0,0,1,.16.31A.25.25,0,0,1,90.29,217.53Zm22-.47a.25.25,0,0,1-.23-.16.26.26,0,0,1,.15-.32l.91-.34a.23.23,0,0,1,.31.14.24.24,0,0,1-.13.31l-.92.35Zm-23.86-.2h-.09l-.91-.38a.24.24,0,1,1,.19-.45l.9.37a.25.25,0,0,1,.13.32A.24.24,0,0,1,88.46,216.86Zm25.68-.52a.25.25,0,0,1-.22-.15.24.24,0,0,1,.12-.32l.89-.41a.25.25,0,0,1,.32.12.23.23,0,0,1-.11.32l-.9.42Zm-27.48-.25-.1,0-.89-.43a.24.24,0,0,1-.11-.32.25.25,0,0,1,.33-.11l.87.42a.23.23,0,0,1,.12.32A.24.24,0,0,1,86.66,216.09Zm29.24-.6a.24.24,0,0,1-.21-.13.24.24,0,0,1,.1-.33c.29-.15.57-.31.84-.47a.25.25,0,0,1,.34.09.24.24,0,0,1-.09.33l-.86.48Zm-31-.27a.2.2,0,0,1-.11,0l-.87-.48a.25.25,0,0,1-.09-.33.24.24,0,0,1,.33-.09c.28.16.57.31.86.46a.26.26,0,0,1,.1.33A.24.24,0,0,1,84.91,215.22Zm32.68-.72a.26.26,0,0,1-.21-.11.25.25,0,0,1,.07-.34c.28-.18.54-.36.8-.55a.25.25,0,0,1,.34.05.25.25,0,0,1,0,.35c-.26.19-.54.38-.82.56A.22.22,0,0,1,117.59,214.5Zm-34.38-.24a.31.31,0,0,1-.13,0c-.27-.17-.56-.34-.83-.52a.24.24,0,1,1,.26-.41l.83.51a.25.25,0,0,1,.08.34A.26.26,0,0,1,83.21,214.26Zm36-.92a.27.27,0,0,1-.19-.08.25.25,0,0,1,0-.35c.25-.21.49-.42.72-.64a.24.24,0,0,1,.33.36c-.23.22-.48.44-.74.66A.24.24,0,0,1,119.16,213.34Zm-37.6-.13a.22.22,0,0,1-.13,0l-.81-.56a.25.25,0,0,1,.29-.4l.79.56a.24.24,0,0,1-.14.44ZM80,212.07a.23.23,0,0,1-.15,0c-.26-.19-.52-.4-.77-.6a.25.25,0,0,1,0-.35.24.24,0,0,1,.34,0l.77.6a.24.24,0,0,1,0,.34A.23.23,0,0,1,80,212.07Zm40.6-.07a.27.27,0,0,1-.17-.06.25.25,0,0,1,0-.35c.21-.24.42-.48.61-.73a.24.24,0,0,1,.34-.05.25.25,0,0,1,.05.35c-.2.25-.42.51-.64.76A.27.27,0,0,1,120.58,212Zm-42.12-1.15a.25.25,0,0,1-.16-.06l-.74-.65a.24.24,0,0,1,0-.34.25.25,0,0,1,.35,0l.73.64a.24.24,0,0,1,0,.34A.21.21,0,0,1,78.46,210.85Zm43.31-.4a.2.2,0,0,1-.13,0,.23.23,0,0,1-.08-.33c.17-.27.33-.55.47-.83a.24.24,0,0,1,.33-.1.25.25,0,0,1,.11.33c-.15.29-.32.58-.5.86A.23.23,0,0,1,121.77,210.45ZM77,209.54a.23.23,0,0,1-.17-.07l-.7-.69a.25.25,0,0,1,0-.34.24.24,0,0,1,.35,0l.69.68a.25.25,0,0,1,0,.35A.29.29,0,0,1,77,209.54Zm45.64-.82-.09,0a.24.24,0,0,1-.14-.31,7.45,7.45,0,0,0,.3-.91.24.24,0,0,1,.3-.16.24.24,0,0,1,.17.3,8,8,0,0,1-.31.94A.25.25,0,0,1,122.65,208.72Zm-47-.57a.27.27,0,0,1-.18-.08l-.66-.73a.25.25,0,0,1,0-.34.24.24,0,0,1,.34,0l.65.72a.24.24,0,0,1,0,.34A.23.23,0,0,1,75.64,208.15Zm47.53-1.31h0a.25.25,0,0,1-.2-.28c0-.31.09-.63.12-.94a.24.24,0,0,1,.26-.23.24.24,0,0,1,.22.26,8.11,8.11,0,0,1-.12,1A.24.24,0,0,1,123.17,206.84Zm-48.81-.16a.25.25,0,0,1-.19-.09l-.61-.78a.24.24,0,1,1,.39-.29l.6.76a.24.24,0,0,1,0,.34A.22.22,0,0,1,74.36,206.68Zm-1.17-1.56A.26.26,0,0,1,73,205c-.18-.26-.37-.54-.54-.82a.23.23,0,0,1,.07-.33.25.25,0,0,1,.34.07c.17.27.35.54.54.8a.24.24,0,0,1-.07.34A.24.24,0,0,1,73.19,205.12Zm50.13-.22a.25.25,0,0,1-.25-.24c0-.31,0-.64,0-1a.25.25,0,0,1,.49,0c0,.33,0,.67,0,1a.25.25,0,0,1-.24.25Zm-51.19-1.42a.24.24,0,0,1-.21-.12c-.17-.28-.34-.57-.5-.86a.25.25,0,0,1,.1-.33.24.24,0,0,1,.33.1c.16.28.32.56.49.84a.25.25,0,0,1-.09.33A.28.28,0,0,1,72.13,203.48Zm51-.53a.24.24,0,0,1-.24-.2c0-.32-.1-.63-.17-.95a.24.24,0,0,1,.18-.29.24.24,0,0,1,.29.19,8.26,8.26,0,0,1,.18,1,.24.24,0,0,1-.2.28Zm-52-1.18a.24.24,0,0,1-.22-.14c-.15-.29-.29-.58-.43-.88a.25.25,0,0,1,.11-.33.26.26,0,0,1,.33.12c.14.29.28.59.43.87a.25.25,0,0,1-.11.33A.23.23,0,0,1,71.18,201.77Zm51.56-.72a.23.23,0,0,1-.23-.18c-.09-.31-.19-.62-.29-.92a.23.23,0,0,1,.15-.31.24.24,0,0,1,.31.15c.11.31.21.63.3.94a.26.26,0,0,1-.17.31ZM70.34,200a.25.25,0,0,1-.22-.15c-.13-.3-.26-.6-.38-.91a.24.24,0,0,1,.14-.31.23.23,0,0,1,.31.13c.12.3.25.6.38.9a.25.25,0,0,1-.13.32Zm51.77-.8a.25.25,0,0,1-.23-.15c-.12-.3-.25-.59-.39-.88a.24.24,0,1,1,.44-.21c.14.3.28.6.4.9a.25.25,0,0,1-.13.32Zm-52.49-1a.24.24,0,0,1-.23-.16q-.18-.45-.33-.93a.24.24,0,0,1,.46-.15l.32.92a.24.24,0,0,1-.14.31Zm51.64-.74a.24.24,0,0,1-.21-.13c-.15-.28-.32-.56-.49-.83a.25.25,0,0,1,.08-.34.24.24,0,0,1,.33.08c.18.28.35.57.51.86a.25.25,0,0,1-.1.33A.27.27,0,0,1,121.26,197.44ZM69,196.33a.25.25,0,0,1-.23-.17c-.1-.31-.19-.63-.28-.95a.24.24,0,0,1,.17-.3.25.25,0,0,1,.3.17l.27.94a.24.24,0,0,1-.16.3Zm51.23-.55a.25.25,0,0,1-.2-.1c-.18-.26-.38-.52-.58-.76a.25.25,0,0,1,0-.35.24.24,0,0,1,.34,0c.21.25.41.52.6.79a.24.24,0,0,1,0,.34A.28.28,0,0,1,120.22,195.78Zm-51.75-1.33a.26.26,0,0,1-.24-.19c-.08-.32-.16-.63-.23-1a.24.24,0,0,1,.19-.29.25.25,0,0,1,.29.19c.07.31.14.63.22.94a.24.24,0,0,1-.17.3Zm50.52-.18a.25.25,0,0,1-.18-.08c-.22-.24-.45-.47-.68-.68a.25.25,0,1,1,.34-.36c.24.23.47.46.7.71a.24.24,0,0,1,0,.34A.2.2,0,0,1,119,194.27Zm-1.43-1.34a.3.3,0,0,1-.15-.05c-.25-.2-.51-.4-.77-.58a.23.23,0,0,1-.06-.33.25.25,0,0,1,.34-.07c.27.19.54.39.8.6a.24.24,0,0,1,0,.34A.23.23,0,0,1,117.56,192.93ZM68,192.54a.24.24,0,0,1-.24-.2q-.1-.48-.18-1a.24.24,0,0,1,.19-.29.26.26,0,0,1,.29.2q.08.48.18,1a.25.25,0,0,1-.2.29Zm47.91-.71-.12,0c-.28-.16-.56-.31-.85-.44a.25.25,0,0,1-.12-.32.24.24,0,0,1,.33-.12c.29.13.59.29.88.45a.25.25,0,0,1,.1.33A.26.26,0,0,1,116,191.83Zm-1.77-.81-.08,0c-.3-.1-.61-.19-.91-.27a.24.24,0,0,1,.11-.47c.32.08.65.17,1,.28a.25.25,0,0,1,.15.31A.26.26,0,0,1,114.18,191Zm-46.48-.4a.25.25,0,0,1-.24-.21c0-.33-.1-.65-.14-1a.24.24,0,0,1,.21-.27.25.25,0,0,1,.28.21c0,.32.08.64.13,1a.24.24,0,0,1-.2.28Zm44.59-.06h0c-.31,0-.63-.07-.94-.08a.25.25,0,1,1,0-.49c.33,0,.66.05,1,.09a.25.25,0,0,1,0,.49Zm-2.4,0a.26.26,0,0,1-.25-.22.26.26,0,0,1,.22-.27l.46,0a.25.25,0,1,1,0,.49l-.44,0Zm-42.44-1.84a.25.25,0,0,1-.24-.22c0-.33-.07-.65-.1-1a.25.25,0,0,1,.23-.26.23.23,0,0,1,.26.22l.09,1a.25.25,0,0,1-.22.27Zm-.16-2a.25.25,0,0,1-.25-.23c0-.33,0-.65-.05-1a.25.25,0,0,1,.49,0c0,.32,0,.65,0,1a.24.24,0,0,1-.23.26Zm-.09-1.95a.24.24,0,0,1-.24-.24c0-.32,0-.64,0-.95v0a.25.25,0,1,1,.49,0v0c0,.31,0,.62,0,.94a.25.25,0,0,1-.24.25Zm0-1.95h0a.26.26,0,0,1-.24-.25l0-1a.25.25,0,1,1,.49,0l0,1A.24.24,0,0,1,67.21,182.83Zm.08-2h0a.25.25,0,0,1-.23-.26c0-.32,0-.65.08-1a.24.24,0,0,1,.26-.22.24.24,0,0,1,.22.26c0,.33,0,.65-.07,1A.24.24,0,0,1,67.29,180.87Zm.16-1.94h0a.24.24,0,0,1-.21-.27c0-.33.07-.66.11-1a.24.24,0,0,1,.27-.21.24.24,0,0,1,.21.27c0,.32-.07.64-.11,1A.25.25,0,0,1,67.45,178.93Zm.24-1.94h0a.25.25,0,0,1-.21-.28l.15-1a.26.26,0,0,1,.29-.2.25.25,0,0,1,.2.28q-.09.48-.15,1A.26.26,0,0,1,67.69,177Zm.33-1.93h0a.24.24,0,0,1-.19-.29c0-.14,0-.28.08-.42l.12-.54a.24.24,0,1,1,.47.11c0,.17-.07.35-.11.53s0,.27-.08.41A.25.25,0,0,1,68,175.06Zm.43-1.9h-.06a.24.24,0,0,1-.17-.3c.08-.32.18-.63.28-.95a.24.24,0,0,1,.3-.15.24.24,0,0,1,.16.3q-.15.47-.27.93A.25.25,0,0,1,68.45,173.16ZM69,171.3l-.08,0a.24.24,0,0,1-.15-.31l.36-.91a.25.25,0,0,1,.32-.14.24.24,0,0,1,.13.32c-.12.3-.24.6-.35.9A.24.24,0,0,1,69,171.3Zm.75-1.8-.1,0a.25.25,0,0,1-.12-.33c.14-.29.29-.59.44-.88a.24.24,0,1,1,.43.22c-.15.29-.29.58-.43.87A.24.24,0,0,1,69.79,169.5Zm.9-1.73a.19.19,0,0,1-.12,0,.23.23,0,0,1-.09-.33c.16-.28.33-.57.51-.84a.24.24,0,1,1,.41.25l-.5.83A.23.23,0,0,1,70.69,167.77Zm1-1.66a.23.23,0,0,1-.14,0,.24.24,0,0,1-.06-.34c.18-.27.37-.54.57-.8a.24.24,0,0,1,.39.29c-.19.26-.38.52-.56.79A.23.23,0,0,1,71.73,166.11Zm1.16-1.57a.21.21,0,0,1-.15,0,.23.23,0,0,1,0-.34c.2-.26.41-.51.63-.76a.23.23,0,0,1,.34,0,.26.26,0,0,1,0,.35c-.21.24-.42.49-.62.74A.25.25,0,0,1,72.89,164.54Zm1.27-1.48A.27.27,0,0,1,74,163a.25.25,0,0,1,0-.35c.22-.24.44-.48.67-.71a.25.25,0,0,1,.35,0,.24.24,0,0,1,0,.35c-.22.23-.45.46-.66.7A.27.27,0,0,1,74.16,163.06Zm1.36-1.4a.22.22,0,0,1-.17-.07.24.24,0,0,1,0-.35l.72-.67a.24.24,0,0,1,.34,0,.23.23,0,0,1,0,.34l-.71.66A.23.23,0,0,1,75.52,161.66ZM77,160.35a.25.25,0,0,1-.19-.09.23.23,0,0,1,0-.34l.75-.63a.24.24,0,0,1,.34,0,.25.25,0,0,1,0,.35l-.75.62A.22.22,0,0,1,77,160.35Zm1.51-1.24a.24.24,0,0,1-.15-.43l.78-.6a.25.25,0,0,1,.29.4l-.77.58A.23.23,0,0,1,78.48,159.11ZM80.05,158a.23.23,0,0,1-.2-.1.24.24,0,0,1,.06-.34l.81-.56a.25.25,0,1,1,.27.41c-.27.18-.54.36-.8.55A.23.23,0,0,1,80.05,158Zm1.62-1.08a.22.22,0,0,1-.2-.12.23.23,0,0,1,.07-.33l.83-.53a.25.25,0,1,1,.26.42c-.28.17-.56.34-.83.52A.28.28,0,0,1,81.67,156.87Zm1.67-1a.22.22,0,0,1-.21-.12.24.24,0,0,1,.08-.33l.85-.49a.24.24,0,0,1,.24.42l-.84.49A.27.27,0,0,1,83.34,155.84Zm1.7-1a.25.25,0,0,1-.22-.13.24.24,0,0,1,.1-.33l.86-.46a.24.24,0,0,1,.33.1.24.24,0,0,1-.1.33l-.86.46Zm1.73-.91a.24.24,0,0,1-.11-.46l.87-.43a.25.25,0,0,1,.33.11.23.23,0,0,1-.11.32l-.87.44Zm1.75-.85a.24.24,0,0,1-.22-.14.25.25,0,0,1,.12-.33l.89-.41a.25.25,0,0,1,.32.12.25.25,0,0,1-.12.33l-.88.4A.23.23,0,0,1,88.52,153.12Zm1.78-.81a.24.24,0,0,1-.22-.14.25.25,0,0,1,.12-.33l.9-.38a.23.23,0,0,1,.32.13.24.24,0,0,1-.13.32l-.89.38A.18.18,0,0,1,90.3,152.31Zm1.8-.76a.25.25,0,0,1-.23-.15.24.24,0,0,1,.14-.32l.91-.37a.24.24,0,0,1,.31.14.25.25,0,0,1-.13.32l-.91.36Zm1.82-.72a.25.25,0,0,1-.23-.16.23.23,0,0,1,.14-.31l.91-.35a.25.25,0,0,1,.18.46l-.92.34Zm1.83-.69a.24.24,0,0,1-.23-.16.24.24,0,0,1,.14-.31l.93-.33a.24.24,0,0,1,.16.46l-.92.33Zm1.84-.64a.25.25,0,0,1-.23-.17.24.24,0,0,1,.15-.31l.93-.31a.25.25,0,0,1,.31.15.25.25,0,0,1-.16.31l-.92.31Zm1.85-.62a.24.24,0,0,1-.23-.17.24.24,0,0,1,.16-.3l.93-.3a.25.25,0,0,1,.31.16.24.24,0,0,1-.16.3l-.93.3Zm1.87-.58a.23.23,0,0,1-.23-.18.24.24,0,0,1,.16-.3l.94-.28a.24.24,0,0,1,.3.16.25.25,0,0,1-.17.31l-.93.28Zm1.87-.56a.25.25,0,0,1-.23-.17.26.26,0,0,1,.16-.31l1-.26a.24.24,0,0,1,.3.16.26.26,0,0,1-.17.31l-.94.26Zm1.88-.53a.24.24,0,0,1-.06-.48l.94-.25a.24.24,0,1,1,.13.47l-.94.26Zm1.89-.5a.25.25,0,0,1-.24-.18.25.25,0,0,1,.18-.3l1-.24a.23.23,0,0,1,.29.17.24.24,0,0,1-.17.3l-.95.24Zm1.89-.48a.24.24,0,0,1,0-.48l.95-.23a.24.24,0,1,1,.11.47l-.95.23Zm1.9-.46a.23.23,0,0,1-.23-.19.24.24,0,0,1,.18-.29l1-.22a.24.24,0,0,1,.29.18.25.25,0,0,1-.18.3l-1,.22Zm1.91-.43a.26.26,0,0,1-.24-.19.25.25,0,0,1,.19-.3l1-.21a.25.25,0,0,1,.29.19.24.24,0,0,1-.18.29l-1,.21Zm1.91-.42a.24.24,0,0,1-.24-.19.24.24,0,0,1,.19-.29l.95-.21a.25.25,0,0,1,.29.19.24.24,0,0,1-.19.29l-1,.2Zm1.91-.4a.25.25,0,0,1-.24-.19.24.24,0,0,1,.19-.29l1-.2a.25.25,0,0,1,.29.2.24.24,0,0,1-.19.28l-1,.2Zm1.92-.38a.24.24,0,0,1-.24-.2.23.23,0,0,1,.19-.28l1-.19a.25.25,0,0,1,.29.2.24.24,0,0,1-.2.28l-1,.19Z"/><path class="cls-10" d="M173.18,138.09a.24.24,0,1,1,0-.48l1,0a.25.25,0,0,1,.25.24.24.24,0,0,1-.24.25l-1,0Zm2,0a.25.25,0,0,1-.25-.24.25.25,0,0,1,.24-.25l1,0a.25.25,0,0,1,0,.49l-1,0Zm2,0a.24.24,0,0,1-.24-.24.25.25,0,0,1,.24-.25l1,0a.26.26,0,0,1,.25.24.25.25,0,0,1-.24.25l-1,0Zm2,0a.24.24,0,0,1-.24-.24.23.23,0,0,1,.24-.24l1,0a.24.24,0,0,1,.24.24.24.24,0,0,1-.24.25h-1Zm2,0a.25.25,0,0,1-.25-.24.25.25,0,0,1,.24-.25l1,0a.25.25,0,0,1,.25.24.24.24,0,0,1-.24.25l-1,0Zm2,0a.24.24,0,0,1-.24-.24.24.24,0,0,1,.24-.24l1,0a.25.25,0,0,1,.25.24.26.26,0,0,1-.24.25h-1Zm2,0a.24.24,0,0,1-.24-.24.24.24,0,0,1,.24-.25h1a.23.23,0,0,1,.25.24.25.25,0,0,1-.24.25Zm2,0a.25.25,0,1,1,0-.49l1,0h0a.25.25,0,1,1,0,.49l-1,0Zm2,0a.24.24,0,0,1-.24-.24.24.24,0,0,1,.24-.25l1,0a.24.24,0,0,1,.24.24.23.23,0,0,1-.24.25l-1,0Zm2,0a.25.25,0,0,1-.25-.25.24.24,0,0,1,.24-.24l1,0a.24.24,0,0,1,.25.24.25.25,0,0,1-.24.25l-1,0Zm2,0a.24.24,0,0,1,0-.48l1,0a.25.25,0,0,1,0,.49h-1Zm2,0a.25.25,0,0,1-.25-.24.26.26,0,0,1,.24-.25h1a.25.25,0,0,1,.25.24.25.25,0,0,1-.24.25Zm2,0a.25.25,0,0,1,0-.49h1a.23.23,0,0,1,.24.24.24.24,0,0,1-.24.25h-1Zm2,0a.26.26,0,0,1-.25-.24.25.25,0,0,1,.24-.25h1a.23.23,0,0,1,.25.24.26.26,0,0,1-.24.25Zm1.95,0a.24.24,0,0,1-.24-.24.24.24,0,0,1,.24-.25h1a.23.23,0,0,1,.24.24.24.24,0,0,1-.23.25h-1Zm2,0a.26.26,0,0,1-.25-.24.25.25,0,0,1,.24-.25h1a.24.24,0,0,1,.25.24.24.24,0,0,1-.24.24l-1,0Zm1.95,0a.25.25,0,0,1,0-.49h1a.24.24,0,0,1,.24.24.24.24,0,0,1-.24.25h-1Zm2,0a.25.25,0,0,1-.25-.24.25.25,0,0,1,.24-.25h1a.24.24,0,0,1,.25.24.24.24,0,0,1-.24.24l-1,0Zm1.95,0a.25.25,0,0,1,0-.49h1a.24.24,0,0,1,.24.24.24.24,0,0,1-.24.25h-1Zm2,0a.25.25,0,0,1-.25-.24.25.25,0,0,1,.24-.25h1a.24.24,0,0,1,.25.24.26.26,0,0,1-.24.25Zm1.95,0a.24.24,0,0,1-.24-.24.25.25,0,0,1,.24-.25h1a.25.25,0,0,1,0,.49h-1Zm2,0a.25.25,0,1,1,0-.49h1a.24.24,0,0,1,.24.24.26.26,0,0,1-.24.25Zm1.95,0a.24.24,0,0,1-.24-.24.25.25,0,0,1,.24-.25h1a.24.24,0,0,1,.25.24.25.25,0,0,1-.24.25h-1Zm2,0a.24.24,0,0,1-.24-.24.26.26,0,0,1,.24-.25h1a.25.25,0,0,1,.25.24.25.25,0,0,1-.24.25h-1Zm2,0a.24.24,0,0,1-.24-.24.24.24,0,0,1,.24-.25h1a.25.25,0,0,1,0,.49Zm1.95,0a.24.24,0,0,1-.24-.24.23.23,0,0,1,.24-.24l1,0a.25.25,0,0,1,0,.49Zm2,0a.24.24,0,0,1-.24-.24.23.23,0,0,1,.24-.24l1,0a.25.25,0,0,1,.25.24.24.24,0,0,1-.24.25Zm2,0a.25.25,0,0,1-.25-.25.24.24,0,0,1,.24-.24l1,0a.25.25,0,0,1,.25.24.25.25,0,0,1-.24.25l-1,0Zm2,0a.25.25,0,0,1-.24-.25.24.24,0,0,1,.24-.24l1,0a.24.24,0,0,1,.24.24.23.23,0,0,1-.24.25l-1,0Zm2,0a.25.25,0,1,1,0-.49l1,0a.25.25,0,0,1,0,.49l-1,0Zm2,0a.24.24,0,0,1-.24-.24.24.24,0,0,1,.24-.25l1,0a.25.25,0,0,1,.24.24.23.23,0,0,1-.24.25l-1,0Zm2,0a.25.25,0,1,1,0-.49l1,0a.25.25,0,0,1,.25.24.25.25,0,0,1-.24.25l-1,0Zm1.95,0a.24.24,0,0,1-.24-.24.24.24,0,0,1,.24-.25l1,0a.24.24,0,0,1,.24.24.24.24,0,0,1-.24.25l-1,0Zm2,0a.25.25,0,1,1,0-.49l1,0a.25.25,0,0,1,.25.24.25.25,0,0,1-.24.25l-1,0Zm1.95,0a.24.24,0,0,1-.24-.24.24.24,0,0,1,.24-.25l1,0a.24.24,0,0,1,.24.24.23.23,0,0,1-.24.25l-1,0Zm2,0a.25.25,0,0,1-.25-.24.25.25,0,0,1,.24-.25l1,0a.25.25,0,1,1,0,.49l-1,0Zm1.95,0a.24.24,0,0,1-.24-.24.24.24,0,0,1,.24-.25l1,0h0a.26.26,0,0,1,.25.24.25.25,0,0,1-.25.25l-1,0Zm2,0a.25.25,0,0,1-.25-.24.24.24,0,0,1,.24-.24l1,0a.25.25,0,0,1,.25.24.24.24,0,0,1-.24.25Zm1.95,0a.24.24,0,0,1-.24-.24.24.24,0,0,1,.24-.24l1,0a.25.25,0,0,1,.25.24.25.25,0,0,1-.24.25h-1Zm2,0a.24.24,0,0,1-.24-.24.24.24,0,0,1,.24-.25h1a.23.23,0,0,1,.25.24.25.25,0,0,1-.24.25Zm2,0a.25.25,0,1,1,0-.49h1a.24.24,0,0,1,.24.24.24.24,0,0,1-.24.24l-1,0Zm1.95,0a.24.24,0,0,1-.24-.24.24.24,0,0,1,.24-.25l1,0h0a.26.26,0,0,1,.25.24.25.25,0,0,1-.24.25l-1,0Zm2,0a.24.24,0,0,1-.24-.24.24.24,0,0,1,.24-.25h1a.23.23,0,0,1,.24.24.24.24,0,0,1-.24.25h-1Zm2,0a.26.26,0,0,1-.25-.24.25.25,0,0,1,.24-.25l1,0a.24.24,0,0,1,.25.24.25.25,0,0,1-.24.25l-1,0Zm2,0a.26.26,0,0,1-.25-.24.25.25,0,0,1,.24-.25l1,0a.24.24,0,0,1,.25.24.24.24,0,0,1-.23.25l-1,0Z"/><path class="cls-11" d="M301.74,132.91a.24.24,0,0,1-.05-.48l1-.2a.23.23,0,0,1,.28.19.24.24,0,0,1-.18.29l-1,.2Zm1.91-.4a.25.25,0,0,1-.24-.2.25.25,0,0,1,.19-.29l.95-.21a.24.24,0,0,1,.11.47l-1,.22Zm1.9-.44a.24.24,0,0,1-.23-.19.25.25,0,0,1,.18-.3l.94-.23a.25.25,0,0,1,.3.18.26.26,0,0,1-.18.3l-.95.23Zm1.9-.48a.25.25,0,0,1-.24-.18.26.26,0,0,1,.18-.3l.94-.25a.25.25,0,0,1,.13.48l-.95.25Zm1.89-.51a.25.25,0,0,1-.24-.17.24.24,0,0,1,.17-.3l.94-.27a.24.24,0,0,1,.3.16.25.25,0,0,1-.17.31l-.94.27Zm1.87-.54a.25.25,0,0,1-.07-.48l.93-.29a.25.25,0,1,1,.15.47l-.94.29Zm1.86-.59a.24.24,0,0,1-.07-.47l.92-.31a.24.24,0,0,1,.16.46l-.93.31Zm1.85-.63a.25.25,0,0,1-.23-.16.25.25,0,0,1,.15-.31l.92-.33a.24.24,0,0,1,.31.14.25.25,0,0,1-.14.32l-.93.33Zm1.84-.67a.24.24,0,0,1-.23-.16.23.23,0,0,1,.14-.31l.9-.36a.24.24,0,0,1,.32.14.24.24,0,0,1-.13.31l-.92.36Zm1.81-.73a.24.24,0,0,1-.23-.15.25.25,0,0,1,.14-.32l.89-.38a.24.24,0,0,1,.32.13.23.23,0,0,1-.13.32c-.29.13-.59.26-.9.38A.15.15,0,0,1,318.57,127.92Zm1.79-.78a.24.24,0,0,1-.1-.46l.88-.41a.24.24,0,1,1,.21.44l-.89.41A.18.18,0,0,1,320.36,127.14Zm1.76-.83a.24.24,0,0,1-.21-.14.24.24,0,0,1,.11-.33l.86-.44a.25.25,0,0,1,.33.11.24.24,0,0,1-.1.33l-.88.44A.2.2,0,0,1,322.12,126.31Zm1.74-.9a.26.26,0,0,1-.22-.13.24.24,0,0,1,.1-.33l.85-.47a.24.24,0,0,1,.24.42l-.85.48A.27.27,0,0,1,323.86,125.41Zm1.7-1a.22.22,0,0,1-.21-.12.24.24,0,0,1,.08-.33l.83-.51a.25.25,0,1,1,.26.42l-.84.51A.27.27,0,0,1,325.56,124.44Zm1.65-1a.23.23,0,0,1-.2-.11.23.23,0,0,1,.07-.34l.8-.54a.24.24,0,1,1,.28.4l-.81.55A.37.37,0,0,1,327.21,123.41Zm1.61-1.12a.23.23,0,0,1-.2-.1.24.24,0,0,1,.05-.34c.27-.19.52-.38.78-.58a.25.25,0,0,1,.34,0,.26.26,0,0,1,0,.35l-.79.59A.23.23,0,0,1,328.82,122.29Zm1.54-1.19a.25.25,0,0,1-.19-.09.24.24,0,0,1,0-.34L331,120a.25.25,0,0,1,.34,0,.24.24,0,0,1,0,.34l-.75.64A.3.3,0,0,1,330.36,121.1Zm1.48-1.28a.21.21,0,0,1-.18-.08.24.24,0,0,1,0-.34c.24-.22.48-.44.7-.67a.25.25,0,0,1,.35,0,.25.25,0,0,1,0,.34c-.23.23-.48.46-.72.68A.25.25,0,0,1,331.84,119.82Zm1.39-1.36a.28.28,0,0,1-.17-.07.25.25,0,0,1,0-.35c.23-.23.45-.47.66-.71a.25.25,0,0,1,.37.33l-.67.72A.25.25,0,0,1,333.23,118.46Zm1.3-1.46a.27.27,0,0,1-.16-.06.25.25,0,0,1,0-.34l.61-.75a.24.24,0,0,1,.34,0,.23.23,0,0,1,0,.34c-.19.26-.4.52-.61.77A.25.25,0,0,1,334.53,117Zm1.19-1.54a.24.24,0,0,1-.14,0,.25.25,0,0,1-.06-.34c.19-.26.38-.53.55-.8a.25.25,0,0,1,.34-.07.25.25,0,0,1,.07.34c-.18.27-.37.55-.56.81A.24.24,0,0,1,335.72,115.46Zm1.07-1.64a.27.27,0,0,1-.12,0,.25.25,0,0,1-.09-.34c.17-.27.33-.55.48-.83a.25.25,0,0,1,.34-.1.24.24,0,0,1,.09.33c-.15.29-.32.57-.49.86A.24.24,0,0,1,336.79,113.82Zm.94-1.71-.11,0a.25.25,0,0,1-.11-.33c.14-.29.28-.58.41-.88a.25.25,0,0,1,.32-.12.24.24,0,0,1,.13.32l-.42.9A.26.26,0,0,1,337.73,112.11Zm.79-1.78-.09,0a.24.24,0,0,1-.14-.32c.12-.29.23-.6.34-.9a.23.23,0,0,1,.31-.15.24.24,0,0,1,.15.31c-.11.31-.22.62-.34.92A.25.25,0,0,1,338.52,110.33Zm.64-1.85h-.07a.24.24,0,0,1-.16-.3c.09-.31.17-.62.25-.93a.26.26,0,0,1,.3-.18.25.25,0,0,1,.18.3c-.09.32-.17.64-.27,1A.25.25,0,0,1,339.16,108.48Zm.48-1.89h-.05a.25.25,0,0,1-.19-.29c.07-.32.13-.64.18-1a.23.23,0,0,1,.28-.2.23.23,0,0,1,.2.28c-.05.32-.11.65-.18,1A.25.25,0,0,1,339.64,106.59Zm.33-1.92h0a.23.23,0,0,1-.21-.27c0-.32.07-.64.1-1a.25.25,0,0,1,.27-.22.24.24,0,0,1,.22.26c0,.33-.07.66-.11,1A.25.25,0,0,1,340,104.67Zm.17-2h0a.24.24,0,0,1-.23-.26c0-.32,0-.64,0-1a.24.24,0,0,1,.25-.24.24.24,0,0,1,.24.24l0,1A.25.25,0,0,1,340.14,102.72Zm0-2a.24.24,0,0,1-.24-.24c0-.32,0-.65,0-1a.24.24,0,0,1,.23-.25.24.24,0,0,1,.26.23c0,.32,0,.65,0,1a.25.25,0,0,1-.24.25Zm-.1-2a.25.25,0,0,1-.25-.22c0-.32-.06-.65-.1-1a.25.25,0,0,1,.49-.06c0,.33.07.66.1,1a.25.25,0,0,1-.22.27Zm-.24-1.94a.25.25,0,0,1-.24-.21c0-.31-.1-.64-.15-1a.23.23,0,0,1,.19-.28.25.25,0,0,1,.29.2c.05.32.11.65.16,1a.25.25,0,0,1-.21.28ZM339.49,95a.24.24,0,0,1-.24-.2l-.21-1a.24.24,0,1,1,.47-.11c.08.32.15.64.22,1a.26.26,0,0,1-.19.29Zm-.45-1.9a.26.26,0,0,1-.24-.19c-.08-.31-.17-.62-.26-.93a.23.23,0,0,1,.16-.3.25.25,0,0,1,.31.16c.09.31.18.63.26,1a.24.24,0,0,1-.17.3Zm-.55-1.88a.24.24,0,0,1-.23-.17c-.1-.31-.21-.62-.31-.92a.24.24,0,1,1,.46-.16c.11.31.21.62.31.93a.25.25,0,0,1-.16.31Zm-.64-1.85a.25.25,0,0,1-.23-.16c-.11-.31-.23-.61-.34-.91a.24.24,0,0,1,.13-.31.25.25,0,0,1,.32.13c.12.31.24.61.35.92a.25.25,0,0,1-.14.32Zm-.72-1.82a.23.23,0,0,1-.22-.15l-.38-.89a.23.23,0,0,1,.12-.32.24.24,0,0,1,.32.12l.39.9a.25.25,0,0,1-.13.32A.16.16,0,0,1,337.13,87.51Zm-.78-1.79a.24.24,0,0,1-.23-.14c-.14-.3-.28-.59-.41-.88a.24.24,0,0,1,.43-.21c.14.29.29.58.43.89a.25.25,0,0,1-.12.32A.2.2,0,0,1,336.35,85.72ZM335.49,84a.24.24,0,0,1-.22-.14l-.45-.86a.24.24,0,0,1,.1-.33.25.25,0,0,1,.33.1q.22.42.45.87a.24.24,0,0,1-.1.33Zm-.93-1.73a.24.24,0,0,1-.21-.12c-.16-.29-.32-.58-.48-.85a.23.23,0,0,1,.09-.33.24.24,0,0,1,.33.08l.49.86a.24.24,0,0,1-.1.33A.27.27,0,0,1,334.56,82.24Zm-1-1.69a.24.24,0,0,1-.21-.12l-.51-.82a.24.24,0,0,1,.07-.34.25.25,0,0,1,.34.07l.52.84a.25.25,0,0,1-.09.34A.27.27,0,0,1,333.58,80.55Zm-1.05-1.65a.23.23,0,0,1-.2-.11c-.2-.3-.38-.57-.55-.81a.25.25,0,0,1,.07-.34.24.24,0,0,1,.34.06l.55.82a.25.25,0,0,1-.07.34A.37.37,0,0,1,332.53,78.9Zm-1.11-1.62a.25.25,0,0,1-.2-.1c-.36-.5-.58-.77-.58-.77a.25.25,0,0,1,0-.35.25.25,0,0,1,.34,0s.23.29.6.8a.24.24,0,0,1-.06.34A.23.23,0,0,1,331.42,77.28Z"/><path class="cls-12" d="M202.14,6.07s-1,35.4,6.13,35.51,14.17,0,14.17,0,2.87,7.77,5.64,3.8,3.84-3.8,3.84-3.8,15.41,3.56,18.16-4.27S257.71,4.69,248.75,2,202.17-1.88,202.14,6.07Z"/><path class="cls-13" d="M206.2,6h0a.18.18,0,0,1-.19-.16,1.34,1.34,0,0,1,.37-1.17c2.47-2.72,17-2.34,28.77-1.55l.89,0a.2.2,0,0,1,.19.2.19.19,0,0,1-.19.19l-.92-.05c-22.27-1.5-27.38.25-28.45,1.43a.94.94,0,0,0-.28.84A.19.19,0,0,1,206.2,6Z"/><path class="cls-13" d="M205.93,21.13a.19.19,0,0,1-.19-.19V12.39a.2.2,0,0,1,.19-.19.2.2,0,0,1,.2.19v8.55A.19.19,0,0,1,205.93,21.13Z"/><path class="cls-13" d="M242.3,39.28a26.73,26.73,0,0,1-2.73-.17l-.58,0a.19.19,0,0,1-.2-.19.2.2,0,0,1,.2-.2l.62,0c1.85.19,7.48.77,8.24-2.44A53.57,53.57,0,0,0,249,27.87a.19.19,0,0,1,.2-.18.19.19,0,0,1,.19.2,55.21,55.21,0,0,1-1.13,8.48C247.66,38.79,244.72,39.28,242.3,39.28Z"/><path class="cls-13" d="M227.26,31.19a1.11,1.11,0,0,1-.62-.2l-5.21-3.75h-5.74a1,1,0,0,1-1-.89l-.65-8.5a1.06,1.06,0,0,1,.27-.79,1.11,1.11,0,0,1,.74-.39h6.36l4.32-4.41a1,1,0,0,1,1.08-.18,1,1,0,0,1,.65.9l.77,17.19a1,1,0,0,1-.53.91A.93.93,0,0,1,227.26,31.19ZM215.05,17.06a.71.71,0,0,0-.46.27.69.69,0,0,0-.16.49l.65,8.5a.57.57,0,0,0,.61.53h5.81a.2.2,0,0,1,.11,0l5.26,3.79a.62.62,0,0,0,.65.07.6.6,0,0,0,.32-.56L227.07,13a.6.6,0,0,0-.4-.54.61.61,0,0,0-.66.08L221.63,17a.19.19,0,0,1-.13,0Z"/><path class="cls-13" d="M231.33,25.67l-.09,0a.2.2,0,0,1-.09-.26c1.83-3.86-.41-7.85-.43-7.89a.18.18,0,0,1,.07-.26.19.19,0,0,1,.27.07s2.36,4.2.44,8.25A.18.18,0,0,1,231.33,25.67Z"/><path class="cls-13" d="M233.5,31.24a.21.21,0,0,1-.11,0,.19.19,0,0,1,0-.27c5.76-8.34,0-18.52,0-18.62a.19.19,0,0,1,.07-.27.21.21,0,0,1,.27.07,23.58,23.58,0,0,1,2.23,6.27,16.46,16.46,0,0,1-2.24,12.77A.19.19,0,0,1,233.5,31.24Z"/><path class="cls-13" d="M239,33.16l-.1,0a.21.21,0,0,1-.07-.27c6.38-10.77.06-22.58,0-22.7a.19.19,0,1,1,.34-.18,27.46,27.46,0,0,1,2.46,7.38,22.49,22.49,0,0,1-2.46,15.7A.2.2,0,0,1,239,33.16Z"/><path class="cls-12" d="M98.85,53.28s-.64,21.5,3.72,21.56,8.61,0,8.61,0,1.74,4.72,3.43,2.31,2.33-2.31,2.33-2.31,9.36,2.17,11-2.59,4.64-19.81-.8-21.43S98.87,48.45,98.85,53.28Z"/><path class="cls-13" d="M101.3,53.31a.18.18,0,0,1-.19-.16.87.87,0,0,1,.24-.77c1.52-1.68,10.38-1.45,17.54-1l.53,0a.2.2,0,0,1,.2.2.19.19,0,0,1-.2.19l-.56,0c-13.49-.91-16.58.14-17.22.84a.49.49,0,0,0-.15.45.19.19,0,0,1-.16.22Z"/><path class="cls-13" d="M101,62.63a.19.19,0,0,1-.2-.19V57.15a.2.2,0,0,1,.2-.2.19.19,0,0,1,.19.2v5.29A.18.18,0,0,1,101,62.63Z"/><path class="cls-13" d="M123.24,73.52a15.85,15.85,0,0,1-1.67-.1l-.34,0a.18.18,0,0,1-.19-.19.19.19,0,0,1,.19-.2l.38,0c1.11.12,4.48.46,4.93-1.42a32.71,32.71,0,0,0,.67-5.09.21.21,0,0,1,.21-.19.19.19,0,0,1,.18.2,32.91,32.91,0,0,1-.68,5.17C126.56,73.22,124.73,73.52,123.24,73.52Z"/><path class="cls-13" d="M117.34,68.64a.72.72,0,0,1-.4-.12L113.8,66.3h-3.46a.73.73,0,0,1-.69-.69l-.39-5.23a.84.84,0,0,1,.18-.6l.06-.08a.63.63,0,0,1,.44-.3h3.84l2.6-2.54a.54.54,0,0,1,.66,0l.08,0a.67.67,0,0,1,.44.61h0L118,67.92a.71.71,0,0,1-.36.64A.8.8,0,0,1,117.34,68.64Zm-7.4-8.85s-.09.11-.13.15l-.08.1a.49.49,0,0,0-.08.31l.39,5.24a.34.34,0,0,0,.3.32h3.52a.2.2,0,0,1,.11,0l3.2,2.26a.29.29,0,0,0,.31,0,.3.3,0,0,0,.16-.27l-.47-10.45h0a.31.31,0,0,0-.19-.27l-.08,0c-.08,0-.22-.09-.24-.06L114,59.73a.2.2,0,0,1-.14.06Z"/><path class="cls-12" d="M22,69.19s-.63,21.5,3.73,21.56,8.6,0,8.6,0,1.74,4.72,3.43,2.31S40,90.75,40,90.75s9.36,2.17,11-2.59,4.63-19.81-.81-21.43S22,64.36,22,69.19Z"/><path class="cls-13" d="M24.4,69.22a.18.18,0,0,1-.19-.16.87.87,0,0,1,.24-.77c1.52-1.68,10.38-1.46,17.54-1l.53,0a.2.2,0,1,1,0,.39l-.56,0c-13.49-.91-16.58.13-17.22.84a.52.52,0,0,0-.15.45.19.19,0,0,1-.16.22Z"/><path class="cls-13" d="M24.14,78.54a.2.2,0,0,1-.2-.19V73.06a.2.2,0,0,1,.2-.2.19.19,0,0,1,.19.2v5.29A.19.19,0,0,1,24.14,78.54Z"/><path class="cls-13" d="M46.34,89.43a15.45,15.45,0,0,1-1.66-.1l-.35,0a.2.2,0,0,1-.19-.19.2.2,0,0,1,.19-.2l.38,0c1.11.11,4.49.46,4.93-1.42a33.42,33.42,0,0,0,.68-5.1.18.18,0,0,1,.2-.18.19.19,0,0,1,.19.2A33.54,33.54,0,0,1,50,87.61C49.66,89.13,47.83,89.43,46.34,89.43Z"/><path class="cls-13" d="M40.44,84.55a.66.66,0,0,1-.4-.13L36.9,82.2H33.44a.72.72,0,0,1-.69-.68l-.39-5.23a.93.93,0,0,1,.18-.6l.06-.08c.11-.13.25-.31.45-.31h3.83l2.6-2.54a.56.56,0,0,1,.66,0l.08,0a.7.7,0,0,1,.44.62h0l.47,10.45a.71.71,0,0,1-.36.64A.76.76,0,0,1,40.44,84.55Zm-7.39-8.86-.14.16-.08.1a.49.49,0,0,0-.08.31l.39,5.23a.33.33,0,0,0,.3.32H37a.28.28,0,0,1,.12,0l3.19,2.26a.29.29,0,0,0,.31,0,.3.3,0,0,0,.16-.27l-.47-10.46a.29.29,0,0,0-.19-.26l-.08,0c-.08,0-.21-.09-.24-.06l-2.66,2.6a.24.24,0,0,1-.14,0Z"/><path class="cls-12" d="M259.06,75.29s-.64,21.5,3.72,21.56,8.61,0,8.61,0,1.74,4.72,3.42,2.31,2.33-2.31,2.33-2.31,9.36,2.17,11-2.59,4.63-19.81-.8-21.43S259.07,70.46,259.06,75.29Z"/><path class="cls-13" d="M261.5,75.32a.2.2,0,0,1-.19-.16.86.86,0,0,1,.24-.77c1.52-1.68,10.38-1.46,17.54-1l.53,0a.2.2,0,1,1,0,.39l-.55,0c-13.5-.91-16.59.13-17.23.84a.49.49,0,0,0-.14.45.21.21,0,0,1-.17.22Z"/><path class="cls-13" d="M261.24,84.64a.19.19,0,0,1-.19-.19V79.16a.19.19,0,0,1,.19-.2.2.2,0,0,1,.2.2v5.29A.2.2,0,0,1,261.24,84.64Z"/><path class="cls-13" d="M283.44,95.53a15.45,15.45,0,0,1-1.66-.1l-.34,0a.2.2,0,1,1,0-.39l.38,0c1.11.12,4.48.46,4.92-1.42a32.06,32.06,0,0,0,.68-5.1.19.19,0,0,1,.2-.18.19.19,0,0,1,.19.2,32.21,32.21,0,0,1-.69,5.17C286.76,95.23,284.94,95.53,283.44,95.53Z"/><path class="cls-13" d="M277.54,90.65a.61.61,0,0,1-.39-.13L274,88.3h-3.46a.72.72,0,0,1-.69-.68l-.39-5.23a.93.93,0,0,1,.18-.6l.07-.08c.1-.13.24-.31.44-.31H274l2.6-2.54c.2-.21.48-.1.66,0l.07,0a.68.68,0,0,1,.44.62h0l.47,10.45a.68.68,0,0,1-.36.63A.66.66,0,0,1,277.54,90.65Zm-7.39-8.86L270,82l-.08.1a.49.49,0,0,0-.08.31l.39,5.23a.35.35,0,0,0,.3.32h3.53a.3.3,0,0,1,.11,0l3.19,2.25a.29.29,0,0,0,.32,0,.29.29,0,0,0,.15-.27l-.47-10.46h0a.29.29,0,0,0-.19-.26l-.08,0c-.08,0-.21-.09-.24-.06l-2.66,2.6a.21.21,0,0,1-.13.05Z"/><path class="cls-12" d="M353.15,75.66s-.64,21.5,3.72,21.56,8.61,0,8.61,0,1.73,4.72,3.42,2.31,2.33-2.31,2.33-2.31,9.36,2.17,11-2.59,4.63-19.81-.8-21.43S353.16,70.83,353.15,75.66Z"/><path class="cls-13" d="M355.59,75.69a.19.19,0,0,1-.19-.16.88.88,0,0,1,.24-.78c1.52-1.67,10.38-1.45,17.54-1l.53,0a.2.2,0,1,1,0,.39l-.56,0c-13.49-.91-16.58.13-17.22.84a.52.52,0,0,0-.15.45.19.19,0,0,1-.16.22Z"/><path class="cls-13" d="M355.33,85a.18.18,0,0,1-.19-.19V79.53a.19.19,0,0,1,.19-.2.2.2,0,0,1,.2.2v5.29A.19.19,0,0,1,355.33,85Z"/><path class="cls-13" d="M377.53,95.9a15.45,15.45,0,0,1-1.66-.1l-.34,0a.2.2,0,1,1,0-.39l.38,0c1.1.11,4.48.46,4.92-1.42a32.06,32.06,0,0,0,.68-5.1.19.19,0,0,1,.2-.18.19.19,0,0,1,.19.2,32.21,32.21,0,0,1-.69,5.17C380.85,95.6,379,95.9,377.53,95.9Z"/><path class="cls-13" d="M371.63,91a.61.61,0,0,1-.39-.13l-3.15-2.22h-3.46a.72.72,0,0,1-.69-.68l-.39-5.23a.91.91,0,0,1,.18-.6l.07-.08c.1-.13.24-.31.44-.31h3.84l2.59-2.54c.21-.21.48-.1.67,0l.07,0a.68.68,0,0,1,.44.62h0l.47,10.45a.68.68,0,0,1-.36.63A.66.66,0,0,1,371.63,91Zm-7.39-8.86-.14.16-.08.1a.49.49,0,0,0-.08.31l.39,5.23a.35.35,0,0,0,.3.32h3.52a.25.25,0,0,1,.12,0l3.19,2.25a.27.27,0,0,0,.31,0,.3.3,0,0,0,.16-.27l-.47-10.46a.29.29,0,0,0-.19-.26l-.08,0c-.08,0-.21-.09-.24-.06l-2.66,2.6a.2.2,0,0,1-.14,0Z"/><path class="cls-8" d="M227.9,51.4c-16.38-2.74-14.59,16.89-9.69,30.62s6.7,13.14,8.19,7.47C226.4,89.49,244.28,54.12,227.9,51.4Zm-3,15.78a5.21,5.21,0,1,1,5.2-5.21A5.2,5.2,0,0,1,224.91,67.18Z"/><path class="cls-14" d="M91.35,249.09,16.93,275.32c-.11,0,29,.79,28.65,0s62.6-25.83,62.32-25.83Z"/><path class="cls-14" d="M121.29,248.91Q94.07,262.25,68.1,275.58H96.86q19.33-13,40.26-26.09Z"/><path class="cls-14" d="M148.62,249.45l-1,.77q-15.94,12.68-29.45,25.34l22.3.11,26.58-26.84Z"/><path class="cls-14" d="M277,248.91q23.82,13.34,48.89,26.67H354.6q-30.6-13-59.62-26.09Z"/><path class="cls-14" d="M306.32,249.45l2,.77q32.54,12.68,67.53,25.34l22.71.11-76.16-26.84Z"/><path class="cls-14" d="M182.8,249.61l-15.34,26c-.19,0,31.1,1.4,29.87.09s4.16-26.84,4-26.84Z"/><path class="cls-14" d="M214.33,248.83l4.77,27.28h23.72a238.38,238.38,0,0,0-11.66-27.94Z"/><path class="cls-14" d="M248.91,248.3l28.91,27.81,34.07.12q-27.5-13.69-49.83-27.4Z"/><polygon class="cls-15" points="182.01 176.33 227.31 255.09 229.97 254.09 183.89 175.65 182.01 176.33"/><polygon class="cls-16" points="186.62 184.35 188.66 183.13 183.72 173.92 180.8 175.18 186.62 184.35"/><path class="cls-17" d="M176.11,164.09l4.21,5.13s6.24,4.07,6.8,5.7,1.07,3.82-1.37,2.79c0,0-2.07-2.94-2.36-2.92s.25,2.73-.07,2.69a1.62,1.62,0,0,1-1.74-.85c-.76-1.11-1.36-3-1.64-3.13S173,167,173,167Z"/><path class="cls-18" d="M133.16,255.8a5,5,0,0,0-1.74-.38h-4.84c-.24,0-.48.33-.48.56v4.1c0,.42.39.63.81.63h1.91a.72.72,0,0,0,.57-.19c.23-.25.57-.59.72-.74s.62.39.89.75a.74.74,0,0,0,.59.31c1.42,0,6.42,0,8.75-.69S135.66,256.73,133.16,255.8Z"/><polygon class="cls-19" points="126.86 252.17 126.51 255.42 131.44 255.42 131.72 252.17 126.86 252.17"/><path class="cls-20" d="M158.79,255.8a5,5,0,0,0-1.74-.38h-4.83c-.24,0-.49.33-.49.56v4.1c0,.42.39.63.82.63h1.9a.71.71,0,0,0,.57-.19c.23-.25.57-.59.72-.74s.62.39.89.75a.75.75,0,0,0,.6.31c1.41,0,6.41,0,8.74-.69S161.29,256.73,158.79,255.8Z"/><polygon class="cls-21" points="151.94 252.03 152.14 255.42 157.07 255.42 156.77 252.18 151.94 252.03"/><polygon class="cls-22" points="158.37 170.86 158.02 252.57 151.65 252.57 146.49 204.7 145 171.67 158.37 170.86"/><path class="cls-23" d="M152.87,171.44s-9.5,67.71-20.89,81.13h-6s11.13-72.64,8.8-81.74C141.48,169.3,152.87,171.44,152.87,171.44Z"/><path class="cls-24" d="M136.05,173.5s-13.43-16.28-8.81-26.85C131.43,137,138,124,150.39,125.55a6.84,6.84,0,0,1,5.25,3.69l10.79,21.47c.06.11,14.11,16.25,14.11,16.25l-4.75,4s-15.61-14.78-17.23-17.22c-.81,6,0,17.9,0,17.9l-16-.27Z"/><path class="cls-25" d="M150.92,126.1a2,2,0,0,1-2,2h-1.09a2,2,0,0,1-2.15-2v-7.39h5.29Z"/><path class="cls-26" d="M155.64,107.37s1.13,7.26.43,10.74-.55,5.89-4.69,5.54a8.7,8.7,0,0,1-7.87-7.07s-1.46-6-.26-8S155.64,107.37,155.64,107.37Z"/><path class="cls-27" d="M144,118.22s.53-.27.26-2.76c-.17-1.59,1.63-.86,2.08-.81.15,0-1.5-5.05,1.89-4.88s11.49-1.66,11.15-7.36-2.76-6-5.13-3.91-7.82,0-9.62,2.18a11.45,11.45,0,0,1-4.75,3.44C136.44,105.82,140.35,116.25,144,118.22Z"/><path class="cls-28" d="M145.46,115.14s0-4.45-2.16-3.77-.26,4.92,1.21,5.47Z"/><path class="cls-29" d="M142.15,171a.11.11,0,0,1-.09-.06c-.06-.14-6.05-14-7.15-17.4s2.78-13.38,3-13.8a.1.1,0,0,1,.13,0,.09.09,0,0,1,0,.12c0,.11-4,10.28-2.95,13.67s7.09,17.25,7.15,17.38a.09.09,0,0,1-.05.13Z"/><path class="cls-30" d="M158.45,153.8a.09.09,0,0,1-.1-.09V140.28a.1.1,0,0,1,.1-.1.1.1,0,0,1,.09.1v13.43A.09.09,0,0,1,158.45,153.8Z"/><path class="cls-31" d="M153.61,113.7l-.12-.15a2.26,2.26,0,0,1,1.5-.47,1.13,1.13,0,0,1,.78.49l-.16.11a1,1,0,0,0-.65-.41A2.16,2.16,0,0,0,153.61,113.7Z"/><path class="cls-32" d="M153.77,113.48a1.62,1.62,0,1,1-1.58-2A1.83,1.83,0,0,1,153.77,113.48Z"/><path class="cls-33" d="M157.84,113.48c0,1.11-.52,2-1.16,2s-1.16-.9-1.16-2,.52-2,1.16-2S157.84,112.38,157.84,113.48Z"/><path class="cls-34" d="M141.91,171.55l1.79,3.65s3.25,3.45,3.25,4.27.26,1.22-.86.76-1.12.26-.77,2.19-.66,3.1-1.57,3.1-4.18-1.07-4.31-4.27a18.33,18.33,0,0,1,.29-4.78l-2.42-3.39Z"/><path class="cls-35" d="M146.53,206.79h0a.09.09,0,0,1-.07-.12c1.22-5,3.5-18.1,3.53-18.24a.11.11,0,0,1,.11-.08.1.1,0,0,1,.08.12c0,.13-2.31,13.29-3.53,18.25A.12.12,0,0,1,146.53,206.79Z"/><path class="cls-8" d="M282,111.93c-12.84-2.14-11.44,13.25-7.59,24s5.25,10.3,6.42,5.85C280.8,141.79,294.81,114.07,282,111.93Zm-2.34,12.37a4.08,4.08,0,1,1,4.08-4.08A4.08,4.08,0,0,1,279.63,124.3Z"/><polygon class="cls-36" points="330.12 66.26 327.12 73.79 323.31 68.52 330.12 66.26"/><path class="cls-37" d="M298,48.45l13.22,25.93a2,2,0,0,0,2.82.86L339.57,61a.82.82,0,0,0,.42-.82.81.81,0,0,0-.61-.69Z"/><polygon class="cls-36" points="330.12 66.26 298 48.45 326 68.57 325.26 70.69 330.12 66.26"/><polygon class="cls-36" points="323.55 69.92 327.12 73.79 326 68.57 323.55 69.92"/></g></g></svg>